<svg width="53" height="53" viewBox="0 0 53 53" fill="none" xmlns="http://www.w3.org/2000/svg">
<path d="M48.8594 21.5312H29.8125V20.7031C29.8125 20.4835 29.7253 20.2729 29.5699 20.1176C29.4146 19.9622 29.204 19.875 28.9844 19.875H26.5V18.2188H34.7812C36.0986 18.2174 37.3617 17.6935 38.2932 16.762C39.2248 15.8304 39.7487 14.5674 39.75 13.25V10.7656C39.75 10.546 39.6628 10.3354 39.5075 10.1801C39.3521 10.0247 39.1415 9.9375 38.9219 9.9375H31.4688V6.625C31.4674 5.30761 30.9435 4.04455 30.012 3.11302C29.0804 2.18148 27.8174 1.65757 26.5 1.65625H9.10938C8.01162 1.65756 6.9592 2.09423 6.18296 2.87046C5.40673 3.6467 4.97006 4.69912 4.96875 5.79688V11.6766C4.03414 11.8688 3.19436 12.3773 2.59097 13.1165C1.98757 13.8556 1.65745 14.7802 1.65625 15.7344V47.2031C1.65756 48.3009 2.09423 49.3533 2.87046 50.1295C3.6467 50.9058 4.69912 51.3424 5.79688 51.3438H22.3594C23.4571 51.3424 24.5096 50.9058 25.2858 50.1295C26.062 49.3533 26.4987 48.3009 26.5 47.2031V43.0625H28.9844C29.204 43.0625 29.4146 42.9753 29.5699 42.82C29.7253 42.6646 29.8125 42.454 29.8125 42.2344V41.4062H48.8594C49.5183 41.4062 50.1502 41.1445 50.6161 40.6786C51.082 40.2127 51.3438 39.5808 51.3438 38.9219V24.0156C51.3438 23.3567 51.082 22.7248 50.6161 22.2589C50.1502 21.793 49.5183 21.5312 48.8594 21.5312ZM38.0938 13.25C38.0938 14.1285 37.7448 14.9711 37.1235 15.5923C36.5023 16.2135 35.6598 16.5625 34.7812 16.5625C33.9027 16.5625 33.0602 16.2135 32.439 15.5923C31.8177 14.9711 31.4688 14.1285 31.4688 13.25V11.5938H38.0938V13.25ZM6.625 5.79688C6.625 5.13798 6.88675 4.50607 7.35266 4.04016C7.81857 3.57425 8.45048 3.3125 9.10938 3.3125H22.7999C21.9823 4.22197 21.5303 5.402 21.5312 6.625V18.2188H6.625V5.79688ZM24.8438 47.2031C24.8438 47.862 24.582 48.4939 24.1161 48.9598C23.6502 49.4258 23.0183 49.6875 22.3594 49.6875H5.79688C5.13798 49.6875 4.50607 49.4258 4.04016 48.9598C3.57425 48.4939 3.3125 47.862 3.3125 47.2031V15.7344C3.31462 15.2224 3.47488 14.7235 3.77135 14.3061C4.06783 13.8887 4.48603 13.573 4.96875 13.4024V19.0469C4.96875 19.2665 5.056 19.4771 5.2113 19.6324C5.36661 19.7878 5.57724 19.875 5.79688 19.875H22.3594C22.579 19.875 22.7896 19.7878 22.9449 19.6324C23.1003 19.4771 23.1875 19.2665 23.1875 19.0469V13.4024C23.6702 13.573 24.0884 13.8887 24.3849 14.3061C24.6814 14.7235 24.8416 15.2224 24.8438 15.7344V47.2031ZM23.1875 11.6766V6.625C23.1875 5.74647 23.5365 4.90392 24.1577 4.28271C24.7789 3.66149 25.6215 3.3125 26.5 3.3125C27.3785 3.3125 28.2211 3.66149 28.8423 4.28271C29.4635 4.90392 29.8125 5.74647 29.8125 6.625V13.25C29.8128 14.474 30.2673 15.6543 31.0878 16.5625H26.5V15.7344C26.4988 14.7802 26.1687 13.8556 25.5653 13.1165C24.9619 12.3773 24.1221 11.8688 23.1875 11.6766ZM28.1562 41.4062H26.5V21.5312H28.1562V41.4062ZM48.8594 23.1875C49.079 23.1875 49.2896 23.2747 49.445 23.4301C49.6003 23.5854 49.6875 23.796 49.6875 24.0156V26.5H29.8125V23.1875H48.8594ZM48.8594 39.75H29.8125V28.1562H49.6875V38.9219C49.6875 39.1415 49.6003 39.3521 49.445 39.5075C49.2896 39.6628 49.079 39.75 48.8594 39.75Z" fill="#BF5AF2"/>
<path d="M9.10938 29.8125H5.79688C5.57724 29.8125 5.36661 29.8997 5.2113 30.0551C5.056 30.2104 4.96875 30.421 4.96875 30.6406V33.9531C4.96875 34.1728 5.056 34.3834 5.2113 34.5387C5.36661 34.694 5.57724 34.7812 5.79688 34.7812H9.10938C9.32901 34.7812 9.53964 34.694 9.69495 34.5387C9.85025 34.3834 9.9375 34.1728 9.9375 33.9531V30.6406C9.9375 30.421 9.85025 30.2104 9.69495 30.0551C9.53964 29.8997 9.32901 29.8125 9.10938 29.8125ZM8.28125 33.125H6.625V31.4688H8.28125V33.125Z" fill="#BF5AF2"/>
<path d="M15.7344 29.8125H12.4219C12.2022 29.8125 11.9916 29.8997 11.8363 30.0551C11.681 30.2104 11.5938 30.421 11.5938 30.6406V33.9531C11.5938 34.1728 11.681 34.3834 11.8363 34.5387C11.9916 34.694 12.2022 34.7812 12.4219 34.7812H15.7344C15.954 34.7812 16.1646 34.694 16.3199 34.5387C16.4753 34.3834 16.5625 34.1728 16.5625 33.9531V30.6406C16.5625 30.421 16.4753 30.2104 16.3199 30.0551C16.1646 29.8997 15.954 29.8125 15.7344 29.8125ZM14.9062 33.125H13.25V31.4688H14.9062V33.125Z" fill="#BF5AF2"/>
<path d="M22.3594 29.8125H19.0469C18.8272 29.8125 18.6166 29.8997 18.4613 30.0551C18.306 30.2104 18.2188 30.421 18.2188 30.6406V33.9531C18.2188 34.1728 18.306 34.3834 18.4613 34.5387C18.6166 34.694 18.8272 34.7812 19.0469 34.7812H22.3594C22.579 34.7812 22.7896 34.694 22.9449 34.5387C23.1003 34.3834 23.1875 34.1728 23.1875 33.9531V30.6406C23.1875 30.421 23.1003 30.2104 22.9449 30.0551C22.7896 29.8997 22.579 29.8125 22.3594 29.8125ZM21.5312 33.125H19.875V31.4688H21.5312V33.125Z" fill="#BF5AF2"/>
<path d="M9.10938 36.4375H5.79688C5.57724 36.4375 5.36661 36.5247 5.2113 36.6801C5.056 36.8354 4.96875 37.046 4.96875 37.2656V40.5781C4.96875 40.7978 5.056 41.0084 5.2113 41.1637C5.36661 41.319 5.57724 41.4062 5.79688 41.4062H9.10938C9.32901 41.4062 9.53964 41.319 9.69495 41.1637C9.85025 41.0084 9.9375 40.7978 9.9375 40.5781V37.2656C9.9375 37.046 9.85025 36.8354 9.69495 36.6801C9.53964 36.5247 9.32901 36.4375 9.10938 36.4375ZM8.28125 39.75H6.625V38.0938H8.28125V39.75Z" fill="#BF5AF2"/>
<path d="M15.7344 36.4375H12.4219C12.2022 36.4375 11.9916 36.5247 11.8363 36.6801C11.681 36.8354 11.5938 37.046 11.5938 37.2656V40.5781C11.5938 40.7978 11.681 41.0084 11.8363 41.1637C11.9916 41.319 12.2022 41.4062 12.4219 41.4062H15.7344C15.954 41.4062 16.1646 41.319 16.3199 41.1637C16.4753 41.0084 16.5625 40.7978 16.5625 40.5781V37.2656C16.5625 37.046 16.4753 36.8354 16.3199 36.6801C16.1646 36.5247 15.954 36.4375 15.7344 36.4375ZM14.9062 39.75H13.25V38.0938H14.9062V39.75Z" fill="#BF5AF2"/>
<path d="M22.3594 36.4375H19.0469C18.8272 36.4375 18.6166 36.5247 18.4613 36.6801C18.306 36.8354 18.2188 37.046 18.2188 37.2656V40.5781C18.2188 40.7978 18.306 41.0084 18.4613 41.1637C18.6166 41.319 18.8272 41.4062 19.0469 41.4062H22.3594C22.579 41.4062 22.7896 41.319 22.9449 41.1637C23.1003 41.0084 23.1875 40.7978 23.1875 40.5781V37.2656C23.1875 37.046 23.1003 36.8354 22.9449 36.6801C22.7896 36.5247 22.579 36.4375 22.3594 36.4375ZM21.5312 39.75H19.875V38.0938H21.5312V39.75Z" fill="#BF5AF2"/>
<path d="M9.10938 43.0625H5.79688C5.57724 43.0625 5.36661 43.1497 5.2113 43.3051C5.056 43.4604 4.96875 43.671 4.96875 43.8906V47.2031C4.96875 47.4228 5.056 47.6334 5.2113 47.7887C5.36661 47.944 5.57724 48.0312 5.79688 48.0312H9.10938C9.32901 48.0312 9.53964 47.944 9.69495 47.7887C9.85025 47.6334 9.9375 47.4228 9.9375 47.2031V43.8906C9.9375 43.671 9.85025 43.4604 9.69495 43.3051C9.53964 43.1497 9.32901 43.0625 9.10938 43.0625ZM8.28125 46.375H6.625V44.7188H8.28125V46.375Z" fill="#BF5AF2"/>
<path d="M15.7344 43.0625H12.4219C12.2022 43.0625 11.9916 43.1497 11.8363 43.3051C11.681 43.4604 11.5938 43.671 11.5938 43.8906V47.2031C11.5938 47.4228 11.681 47.6334 11.8363 47.7887C11.9916 47.944 12.2022 48.0312 12.4219 48.0312H15.7344C15.954 48.0312 16.1646 47.944 16.3199 47.7887C16.4753 47.6334 16.5625 47.4228 16.5625 47.2031V43.8906C16.5625 43.671 16.4753 43.4604 16.3199 43.3051C16.1646 43.1497 15.954 43.0625 15.7344 43.0625ZM14.9062 46.375H13.25V44.7188H14.9062V46.375Z" fill="#BF5AF2"/>
<path d="M22.3594 43.0625H19.0469C18.8272 43.0625 18.6166 43.1497 18.4613 43.3051C18.306 43.4604 18.2188 43.671 18.2188 43.8906V47.2031C18.2188 47.4228 18.306 47.6334 18.4613 47.7887C18.6166 47.944 18.8272 48.0312 19.0469 48.0312H22.3594C22.579 48.0312 22.7896 47.944 22.9449 47.7887C23.1003 47.6334 23.1875 47.4228 23.1875 47.2031V43.8906C23.1875 43.671 23.1003 43.4604 22.9449 43.3051C22.7896 43.1497 22.579 43.0625 22.3594 43.0625ZM21.5312 46.375H19.875V44.7188H21.5312V46.375Z" fill="#BF5AF2"/>
<path d="M22.3594 23.1875H5.79688C5.57724 23.1875 5.36661 23.2747 5.2113 23.4301C5.056 23.5854 4.96875 23.796 4.96875 24.0156V27.3281C4.96875 27.5478 5.056 27.7584 5.2113 27.9137C5.36661 28.069 5.57724 28.1562 5.79688 28.1562H22.3594C22.579 28.1562 22.7896 28.069 22.9449 27.9137C23.1003 27.7584 23.1875 27.5478 23.1875 27.3281V24.0156C23.1875 23.796 23.1003 23.5854 22.9449 23.4301C22.7896 23.2747 22.579 23.1875 22.3594 23.1875ZM21.5312 26.5H6.625V24.8438H21.5312V26.5Z" fill="#BF5AF2"/>
<path d="M45.5469 33.125C44.9337 33.1271 44.3433 33.3574 43.8906 33.7709C43.5345 33.4472 43.092 33.2339 42.6169 33.157C42.1418 33.08 41.6546 33.1427 41.2144 33.3374C40.7743 33.5321 40.4002 33.8505 40.1376 34.2538C39.875 34.6572 39.7352 35.1281 39.7352 35.6094C39.7352 36.0906 39.875 36.5616 40.1376 36.9649C40.4002 37.3682 40.7743 37.6866 41.2144 37.8813C41.6546 38.076 42.1418 38.1387 42.6169 38.0618C43.092 37.9848 43.5345 37.7715 43.8906 37.4478C44.1897 37.7196 44.5506 37.9144 44.942 38.0152C45.3334 38.116 45.7435 38.1198 46.1367 38.0262C46.5299 37.9327 46.8943 37.7446 47.1983 37.4783C47.5024 37.212 47.7369 36.8756 47.8815 36.4982C48.0261 36.1208 48.0764 35.7138 48.0282 35.3125C47.9799 34.9112 47.8344 34.5278 47.6044 34.1955C47.3744 33.8631 47.0668 33.5919 46.7082 33.4054C46.3497 33.2188 45.951 33.1226 45.5469 33.125ZM42.2344 36.4375C42.0706 36.4375 41.9105 36.3889 41.7743 36.2979C41.6381 36.2069 41.532 36.0776 41.4693 35.9263C41.4066 35.7749 41.3902 35.6084 41.4222 35.4478C41.4541 35.2872 41.533 35.1396 41.6488 35.0238C41.7646 34.908 41.9122 34.8291 42.0728 34.7971C42.2334 34.7652 42.4 34.7816 42.5513 34.8443C42.7026 34.9069 42.8319 35.0131 42.9229 35.1493C43.0139 35.2855 43.0625 35.4456 43.0625 35.6094C43.0625 35.829 42.9752 36.0396 42.8199 36.1949C42.6646 36.3502 42.454 36.4375 42.2344 36.4375ZM45.5469 36.4375C45.3831 36.4375 45.223 36.3889 45.0868 36.2979C44.9506 36.2069 44.8445 36.0776 44.7818 35.9263C44.7191 35.7749 44.7027 35.6084 44.7347 35.4478C44.7666 35.2872 44.8455 35.1396 44.9613 35.0238C45.0771 34.908 45.2247 34.8291 45.3853 34.7971C45.5459 34.7652 45.7125 34.7816 45.8638 34.8443C46.0151 34.9069 46.1444 35.0131 46.2354 35.1493C46.3264 35.2855 46.375 35.4456 46.375 35.6094C46.375 35.829 46.2877 36.0396 46.1324 36.1949C45.9771 36.3502 45.7665 36.4375 45.5469 36.4375Z" fill="#BF5AF2"/>
<path d="M8.28125 6.625H9.9375V8.28125H8.28125V6.625Z" fill="#BF5AF2"/>
<path d="M11.5938 6.625H19.875V8.28125H11.5938V6.625Z" fill="#BF5AF2"/>
<path d="M8.28125 9.9375H19.875V11.5938H8.28125V9.9375Z" fill="#BF5AF2"/>
<path d="M8.28125 13.25H19.875V14.9062H8.28125V13.25Z" fill="#BF5AF2"/>
</svg>
