<svg width="39" height="39" viewBox="0 0 39 39" fill="none" xmlns="http://www.w3.org/2000/svg">
<g clip-path="url(#clip0)">
<path d="M38.828 26.6677L36.1378 23.9777C35.9083 23.7482 35.5364 23.7482 35.3069 23.9777C35.0775 24.2071 35.0775 24.5791 35.3069 24.8085L35.6816 25.1831L26.6505 34.2143L23.4288 30.9926L32.46 21.9615L33.3806 22.8822C33.6102 23.1116 33.9821 23.1116 34.2116 22.8822C34.441 22.6527 34.441 22.2807 34.2116 22.0513L32.8787 20.7184C31.8227 19.6356 31.1288 18.4019 30.1513 17.2443C31.2681 15.7444 30.0862 13.5485 28.226 13.6398C28.2875 12.3335 27.1713 11.2114 25.8608 11.2734C25.9222 9.96781 24.8019 8.84369 23.4938 8.90769C23.5953 6.75244 20.9014 5.78303 19.4998 7.33964L19.3614 7.2013C18.4801 6.31994 17.0459 6.31994 16.1646 7.2013C15.6962 7.66967 15.4767 8.29416 15.5062 8.90886C14.1979 8.84619 13.0772 9.96334 13.1392 11.2748C12.618 11.2501 12.0902 11.405 11.6562 11.738C10.8575 11.4563 9.98419 11.5585 9.21078 12.0349C8.25727 12.6221 7.66051 13.6437 7.64594 14.7086L6.9804 19.8595L0.172084 26.6677C-0.0573614 26.8972 -0.0573614 27.2692 0.172084 27.4986L10.034 37.3606C10.1487 37.4753 10.2991 37.5327 10.4494 37.5327C10.5997 37.5327 10.7502 37.4753 10.8648 37.3606L16.8173 31.4081C17.0468 31.1786 17.0468 30.8066 16.8173 30.5772L15.8173 29.5772C16.94 28.4546 18.0661 27.8859 19.4999 27.2381C20.9226 27.8809 22.0697 28.4645 23.1824 29.5772L22.1824 30.5772C22.0723 30.6874 22.0104 30.8368 22.0104 30.9927C22.0104 31.1485 22.0723 31.2979 22.1824 31.4081L28.1349 37.3606C28.2497 37.4753 28.4001 37.5327 28.5504 37.5327C28.7007 37.5327 28.8511 37.4753 28.9659 37.3606L38.8279 27.4986C38.938 27.3885 38.9999 27.239 38.9999 27.0832C38.9999 26.9274 38.9381 26.7779 38.828 26.6677ZM28.3342 14.8122C29.0948 14.8131 29.636 15.6406 29.327 16.3375C28.8549 15.8558 28.3744 15.382 27.8975 14.905C28.0431 14.874 28.1886 14.8431 28.3342 14.8122ZM25.9679 12.4458C26.7355 12.4467 27.269 13.2715 26.9609 13.9707C26.4558 13.4771 25.8849 13.0317 25.2465 12.7231C25.4527 12.5415 25.6931 12.4491 25.9679 12.4458ZM10.0358 16.8036L9.89747 16.6653C9.47422 16.242 9.47422 15.5534 9.89747 15.1301C10.1091 14.9185 10.3871 14.8127 10.665 14.8127C10.9429 14.8127 11.221 14.9185 11.4325 15.1301L11.5708 15.2684L10.8033 16.0359L10.0358 16.8036ZM16.9955 8.03213C17.2071 7.82054 17.4851 7.71471 17.763 7.71471C18.0409 7.71471 18.319 7.82054 18.5305 8.03213L18.6689 8.17047L17.1337 9.70562L16.9954 9.56727C16.5722 9.14403 16.5722 8.45538 16.9955 8.03213ZM14.3115 11.1657C14.3115 10.8758 14.4244 10.6032 14.6295 10.3982C14.8412 10.1866 15.1191 10.0808 15.397 10.0808C15.675 10.0808 15.953 10.1866 16.1646 10.3982L16.3029 10.5365L15.5354 11.3041L14.7678 12.0716L14.6294 11.9332C14.4244 11.7282 14.3115 11.4556 14.3115 11.1657ZM13.031 12.4467C13.3089 12.4467 13.587 12.5526 13.7985 12.7642L13.9369 12.9025L12.4017 14.4376L12.2634 14.2993C11.8401 13.8761 11.8401 13.1874 12.2634 12.7642C12.4751 12.5525 12.753 12.4467 13.031 12.4467ZM9.82697 13.0353C10.0515 12.8971 10.4414 12.7197 10.9047 12.7658C10.8037 13.0475 10.7599 13.3453 10.7741 13.6409C10.0194 13.6047 9.27227 13.964 8.8303 14.5775C8.89109 13.9711 9.26812 13.3795 9.82697 13.0353ZM10.4494 36.1142L1.41841 27.0832L2.48753 26.014L11.5185 35.0451L10.4494 36.1142ZM22.1183 27.131C21.7039 26.8734 21.2642 26.6561 20.8078 26.4833C21.3928 26.0621 21.8871 25.5425 22.3947 25.035C22.6241 24.8055 22.6241 24.4335 22.3947 24.2042C22.1652 23.9747 21.7932 23.9747 21.5638 24.2042C20.8512 24.9168 20.155 25.6064 19.2385 26.062C17.6329 26.8648 16.2788 27.4541 14.9866 28.7462L9.99116 23.7507C9.76171 23.5213 9.3897 23.5213 9.16033 23.7507C8.93088 23.9802 8.93088 24.3522 9.16033 24.5816L15.5712 30.9925L12.3496 34.2142L3.31836 25.1832L6.54 21.9616L7.12172 22.5433C7.35116 22.7727 7.72318 22.7727 7.95255 22.5433C8.18199 22.3138 8.18199 21.9418 7.95255 21.7125L7.37083 21.1307L7.95278 20.5488C8.04459 20.457 8.10334 20.3373 8.12003 20.2086L8.56803 16.7415C8.78205 17.2756 9.223 17.6527 9.61922 18.0488C9.84898 18.2787 10.2263 18.275 10.4512 18.05L20.4693 8.03182C21.4483 7.05285 22.9869 8.58518 22.0047 9.56727C21.89 9.68196 21.8327 9.83236 21.8327 9.98269C21.8327 10.133 21.89 10.2834 22.0047 10.3981C22.2343 10.6275 22.6062 10.6275 22.8356 10.3981C23.826 9.40778 25.3607 10.943 24.3705 11.933C24.2559 12.0477 24.1985 12.1981 24.1985 12.3484C24.1985 12.2127 19.5313 12.276 19.1538 12.276C16.596 12.276 16.1714 16.0641 18.699 16.5573L21.6121 17.4201C22.0671 17.5547 22.4852 17.8035 22.8212 18.1396L25.2248 20.5431L23.5288 22.2392C23.2992 22.4686 23.2992 22.8406 23.5287 23.07C23.7581 23.2995 24.1301 23.2995 24.3595 23.07L26.471 20.9585C26.5813 20.8484 26.6431 20.6989 26.6431 20.5431C26.6431 20.3873 26.5813 20.2379 26.4711 20.1277L23.6522 17.3088C23.178 16.8346 22.5878 16.4834 21.9457 16.2935L19.0038 15.4222C17.92 15.1014 17.8183 13.4512 19.1539 13.4512H23.3282C24.4621 13.4512 25.432 14.101 26.2069 14.876C26.2069 14.876 28.7551 17.4346 28.9274 17.6275C29.9317 18.7443 30.5742 20.0754 31.6292 21.1303L24.0134 28.7461C23.4216 28.1545 22.8347 27.576 22.1183 27.131ZM28.5505 36.1142L27.4815 35.0452L36.5125 26.0141L37.5816 27.0832L28.5505 36.1142Z" fill="#ED882B"/>
<path d="M19.5001 3.84369C19.8247 3.84369 20.0876 3.58064 20.0876 3.25617V2.05505C20.0876 1.73058 19.8247 1.46753 19.5001 1.46753C19.1756 1.46753 18.9126 1.73058 18.9126 2.05505V3.25617C18.9126 3.58064 19.1756 3.84369 19.5001 3.84369Z" fill="#ED882B"/>
<path d="M16.187 4.06098C16.2835 4.28165 16.4992 4.41325 16.7256 4.41325C16.8041 4.41325 16.884 4.39735 16.9606 4.3639C17.2579 4.23386 17.3935 3.88746 17.2635 3.59018L16.7822 2.48972C16.6522 2.19243 16.3058 2.05676 16.0085 2.18687C15.7112 2.31691 15.5756 2.66331 15.7056 2.9606L16.187 4.06098Z" fill="#ED882B"/>
<path d="M14.012 5.89034C14.125 5.99484 14.268 6.04646 14.4107 6.04646C14.5688 6.04646 14.7264 5.98301 14.8422 5.85783C15.0625 5.61961 15.0479 5.24791 14.8097 5.02755L13.9278 4.21207C13.6895 3.99172 13.3179 4.00636 13.0975 4.24458C12.8773 4.4828 12.8918 4.85451 13.1301 5.07486L14.012 5.89034Z" fill="#ED882B"/>
<path d="M22.0393 4.3638C22.1159 4.39733 22.1957 4.41315 22.2744 4.41315C22.5008 4.41315 22.7165 4.28155 22.813 4.06087L23.2943 2.96042C23.4242 2.66313 23.2886 2.31673 22.9914 2.18677C22.6943 2.05689 22.3477 2.19233 22.2176 2.4897L21.7364 3.59016C21.6064 3.88736 21.742 4.23376 22.0393 4.3638Z" fill="#ED882B"/>
<path d="M24.5892 6.04646C24.7318 6.04646 24.8749 5.99484 24.9879 5.89034L25.8699 5.07486C26.1081 4.85458 26.1228 4.48288 25.9024 4.24458C25.682 4.00636 25.3103 3.99172 25.0721 4.21207L24.1901 5.02755C23.9519 5.24783 23.9373 5.61953 24.1576 5.85783C24.2735 5.98301 24.4311 6.04646 24.5892 6.04646Z" fill="#ED882B"/>
<path d="M12.5064 31.6975C12.8622 31.6134 13.0824 31.2568 12.9983 30.9011C12.9142 30.5453 12.5576 30.325 12.2018 30.4091C11.846 30.4932 11.6258 30.8498 11.7099 31.2056C11.794 31.5614 12.1506 31.7816 12.5064 31.6975Z" fill="#ED882B"/>
</g>
<defs>
<clipPath id="clip0">
<rect width="39" height="39" fill="white"/>
</clipPath>
</defs>
</svg>
