<svg width="53" height="53" viewBox="0 0 53 53" fill="none" xmlns="http://www.w3.org/2000/svg">
<g clip-path="url(#clip0)">
<path d="M40.578 50.5157H38.0936V48.8594H40.578C41.6758 48.8581 42.7282 48.4215 43.5044 47.6452C44.2806 46.869 44.7173 45.8166 44.7186 44.7188V33.1251C44.7173 32.0273 44.2806 30.9749 43.5044 30.1987C42.7282 29.4224 41.6758 28.9858 40.578 28.9844H36.4374V27.3282H40.578C42.1149 27.3299 43.5883 27.9412 44.6751 29.028C45.7618 30.1147 46.3731 31.5882 46.3749 33.1251V44.7188C46.3731 46.2557 45.7618 47.7291 44.6751 48.8159C43.5883 49.9026 42.1149 50.5139 40.578 50.5157Z" fill="#56CCF2"/>
<path d="M14.9062 50.5157H12.4219C10.885 50.5139 9.41155 49.9026 8.3248 48.8159C7.23806 47.7291 6.62675 46.2557 6.625 44.7188V43.7093L3.94022 43.0377C3.76099 42.993 3.60184 42.8897 3.4881 42.7441C3.37436 42.5986 3.31255 42.4192 3.3125 42.2344V37.2657C3.31255 37.081 3.37436 36.9016 3.4881 36.756C3.60184 36.6105 3.76099 36.5071 3.94022 36.4624L6.625 35.7908V33.1251C6.62675 31.5882 7.23806 30.1147 8.3248 29.028C9.41155 27.9412 10.885 27.3299 12.4219 27.3282V28.9844C11.3241 28.9858 10.2717 29.4224 9.49546 30.1987C8.71923 30.9749 8.28257 32.0273 8.28125 33.1251V36.4376C8.2812 36.6223 8.21939 36.8017 8.10565 36.9472C7.99191 37.0928 7.83276 37.1961 7.65353 37.2408L4.96875 37.9124V41.5877L7.65353 42.2593C7.83276 42.304 7.99191 42.4073 8.10565 42.5529C8.21939 42.6984 8.2812 42.8778 8.28125 43.0626V44.7188C8.28257 45.8166 8.71923 46.869 9.49546 47.6452C10.2717 48.4215 11.3241 48.8581 12.4219 48.8594H14.9062V50.5157Z" fill="#56CCF2"/>
<path d="M12.5087 31.0109L10.0244 26.0421C9.96125 25.9158 9.93147 25.7755 9.93786 25.6345C9.94425 25.4934 9.98658 25.3564 10.0608 25.2363C10.1351 25.1163 10.2388 25.0172 10.3622 24.9485C10.4855 24.8798 10.6243 24.8437 10.7655 24.8438C13.3435 24.8438 18.2186 26.0554 18.2186 30.6407H16.5624C16.5624 27.8151 13.89 26.9141 12.1733 26.6326L13.9952 30.2705L12.5087 31.0109Z" fill="#56CCF2"/>
<path d="M19.0468 53.0001H15.7343C15.5605 53 15.3913 52.9452 15.2504 52.8435C15.1095 52.7419 15.0041 52.5985 14.9492 52.4337L13.293 47.4649L14.8664 46.9415L16.3314 51.3438H18.4497L19.918 46.9415L21.4914 47.4649L19.8352 52.4337C19.7801 52.599 19.6742 52.7428 19.5327 52.8445C19.3911 52.9462 19.2211 53.0007 19.0468 53.0001Z" fill="#56CCF2"/>
<path d="M37.2655 53.0001H33.953C33.7793 53 33.61 52.9452 33.4691 52.8435C33.3282 52.7419 33.2229 52.5985 33.168 52.4337L31.5117 47.4649L33.0852 46.9415L34.5501 51.3438H36.6685L38.1367 46.9415L39.7102 47.4649L38.0539 52.4337C37.9988 52.599 37.893 52.7428 37.7514 52.8445C37.6099 52.9462 37.4398 53.0007 37.2655 53.0001Z" fill="#56CCF2"/>
<path d="M22.3593 48.8594H33.1249V50.5156H22.3593V48.8594Z" fill="#56CCF2"/>
<path d="M46.8668 8.2101L32.3879 1.77557L24.49 7.3033L23.541 5.94683L31.8223 0.14996C31.9392 0.0680989 32.0752 0.017839 32.2173 0.00405501C32.3593 -0.009729 32.5025 0.0134308 32.633 0.0712879L47.5392 6.69629L46.8668 8.2101Z" fill="#56CCF2"/>
<path d="M40.578 19.0469C38.4585 19.0214 36.3812 18.4511 34.5459 17.3906H28.5702C27.8015 17.3906 27.0642 17.0853 26.5207 16.5417C25.9771 15.9982 25.6718 15.2609 25.6718 14.4922C25.6718 13.7235 25.9771 12.9863 26.5207 12.4427C27.0642 11.8991 27.8015 11.5938 28.5702 11.5938H34.5054L37.5968 9.27502L38.5905 10.6L35.278 13.0844C35.1347 13.1919 34.9603 13.25 34.7811 13.25H28.5702C28.2407 13.25 27.9248 13.3809 27.6918 13.6139C27.4589 13.8468 27.328 14.1628 27.328 14.4922C27.328 14.8217 27.4589 15.1376 27.6918 15.3706C27.9248 15.6035 28.2407 15.7344 28.5702 15.7344H34.7811C34.9447 15.7347 35.1045 15.783 35.2407 15.8735C36.856 16.8384 38.6967 17.3616 40.578 17.3906C42.7419 17.3506 44.8955 17.0814 47.0026 16.5874L47.4034 18.1939C45.1657 18.7237 42.8773 19.0097 40.578 19.0469Z" fill="#56CCF2"/>
<path d="M52.1718 19.8751H47.203C46.9834 19.8751 46.7727 19.7878 46.6174 19.6325C46.4621 19.4772 46.3749 19.2666 46.3749 19.0469V5.79694C46.3749 5.5773 46.4621 5.36667 46.6174 5.21136C46.7727 5.05606 46.9834 4.96881 47.203 4.96881H52.1718C52.3914 4.96881 52.602 5.05606 52.7573 5.21136C52.9126 5.36667 52.9999 5.5773 52.9999 5.79694V19.0469C52.9999 19.2666 52.9126 19.4772 52.7573 19.6325C52.602 19.7878 52.3914 19.8751 52.1718 19.8751ZM48.0311 18.2188H51.3436V6.62506H48.0311V18.2188Z" fill="#56CCF2"/>
<path d="M48.8593 15.7344H50.5155V17.3907H48.8593V15.7344Z" fill="#56CCF2"/>
<path d="M36.4374 33.1251H19.8749C19.6552 33.1251 19.4446 33.0378 19.2893 32.8825C19.134 32.7272 19.0468 32.5166 19.0468 32.2969V6.62506C19.0468 6.40543 19.134 6.19479 19.2893 6.03949C19.4446 5.88418 19.6552 5.79694 19.8749 5.79694H36.4374C36.657 5.79694 36.8676 5.88418 37.023 6.03949C37.1783 6.19479 37.2655 6.40543 37.2655 6.62506V11.5938H35.6093V7.45319H20.703V31.4688H35.6093V17.3907H37.2655V32.2969C37.2655 32.5166 37.1783 32.7272 37.023 32.8825C36.8676 33.0378 36.657 33.1251 36.4374 33.1251Z" fill="#56CCF2"/>
<path d="M17.3905 31.4688H38.9218V33.1251H17.3905V31.4688Z" fill="#56CCF2"/>
<path d="M40.578 31.4688H42.2343V33.1251H40.578V31.4688Z" fill="#56CCF2"/>
<path d="M16.5624 27.3282H19.8749V28.9844H16.5624V27.3282Z" fill="#56CCF2"/>
<path d="M32.2968 16.5626H33.953V32.2969H32.2968V16.5626Z" fill="#56CCF2"/>
<path d="M24.0155 32.2969H22.3593V11.5938C22.3593 11.3742 22.4465 11.1635 22.6018 11.0082C22.7571 10.8529 22.9677 10.7657 23.1874 10.7657C23.407 10.7657 23.6176 10.6784 23.773 10.5231C23.9283 10.3678 24.0155 10.1572 24.0155 9.93756C24.0155 9.71793 24.1028 9.50729 24.2581 9.35199C24.4134 9.19668 24.624 9.10944 24.8436 9.10944H31.4686C31.6883 9.10944 31.8989 9.19668 32.0542 9.35199C32.2095 9.50729 32.2968 9.71793 32.2968 9.93756C32.2968 10.1572 32.384 10.3678 32.5393 10.5231C32.6946 10.6784 32.9052 10.7657 33.1249 10.7657C33.3445 10.7657 33.5551 10.8529 33.7105 11.0082C33.8658 11.1635 33.953 11.3742 33.953 11.5938V12.4219H32.2968V12.2803C31.9478 12.156 31.6308 11.9556 31.3688 11.6936C31.1068 11.4317 30.9064 11.1147 30.7821 10.7657H25.5301C25.4058 11.1147 25.2054 11.4317 24.9434 11.6936C24.6815 11.9556 24.3645 12.156 24.0155 12.2803V32.2969Z" fill="#56CCF2"/>
<path d="M19.2016 26.9812L10.9204 15.3874C10.854 15.2944 10.8077 15.1886 10.7842 15.0768C10.7608 14.965 10.7607 14.8495 10.7841 14.7377C10.8074 14.6258 10.8536 14.52 10.9198 14.4269C10.986 14.3338 11.0708 14.2554 11.1688 14.1966L19.45 9.22784L20.303 10.6473L12.7886 15.1547L20.5481 26.0189L19.2016 26.9812Z" fill="#56CCF2"/>
<path d="M10.7656 34.7912L9.10931 34.7813C9.09969 34.4524 9.15737 34.1251 9.27882 33.8193C9.40027 33.5135 9.58292 33.2358 9.81556 33.0032C10.0482 32.7705 10.3259 32.5879 10.6317 32.4664C10.9375 32.345 11.2648 32.2873 11.5937 32.2969C11.9225 32.2873 12.2499 32.345 12.5557 32.4664C12.8614 32.5879 13.1392 32.7705 13.3718 33.0032C13.6044 33.2358 13.7871 33.5135 13.9085 33.8193C14.03 34.1251 14.0877 34.4524 14.0781 34.7813H12.4218C12.4327 34.6698 12.4188 34.5573 12.3811 34.4519C12.3433 34.3465 12.2827 34.2507 12.2035 34.1715C12.1243 34.0923 12.0285 34.0316 11.9231 33.9939C11.8176 33.9561 11.7051 33.9422 11.5937 33.9532C11.4814 33.9425 11.3681 33.9569 11.2621 33.9953C11.1561 34.0338 11.0599 34.0954 10.9807 34.1756C10.9014 34.2558 10.841 34.3527 10.8037 34.4592C10.7665 34.5657 10.7535 34.6791 10.7656 34.7912Z" fill="#56CCF2"/>
<path d="M28.1561 29.8126C27.0096 29.8126 25.8889 29.4726 24.9356 28.8356C23.9823 28.1986 23.2393 27.2933 22.8005 26.2341C22.3618 25.1748 22.247 24.0093 22.4706 22.8848C22.6943 21.7603 23.2464 20.7274 24.0571 19.9167C24.8678 19.106 25.9007 18.5539 27.0252 18.3302C28.1497 18.1065 29.3153 18.2213 30.3745 18.6601C31.4337 19.0988 32.3391 19.8418 32.9761 20.7951C33.613 21.7484 33.953 22.8692 33.953 24.0157C33.9513 25.5526 33.34 27.026 32.2532 28.1128C31.1665 29.1995 29.693 29.8108 28.1561 29.8126ZM28.1561 19.8751C27.3372 19.8751 26.5366 20.1179 25.8557 20.5729C25.1748 21.0279 24.6441 21.6745 24.3307 22.4311C24.0173 23.1877 23.9353 24.0203 24.0951 24.8235C24.2548 25.6267 24.6492 26.3645 25.2283 26.9436C25.8073 27.5226 26.5451 27.917 27.3483 28.0768C28.1515 28.2365 28.9841 28.1545 29.7407 27.8411C30.4973 27.5277 31.144 26.997 31.5989 26.3161C32.0539 25.6352 32.2968 24.8346 32.2968 24.0157C32.2954 22.9179 31.8588 21.8655 31.0825 21.0893C30.3063 20.313 29.2539 19.8764 28.1561 19.8751Z" fill="#56CCF2"/>
<path d="M4.14057 24.0156H2.48432V11.5938H0.828071C0.664309 11.5937 0.504233 11.5451 0.368082 11.4541C0.23193 11.3631 0.125814 11.2338 0.0631498 11.0825C0.00048554 10.9312 -0.0159138 10.7647 0.016025 10.6041C0.0479637 10.4435 0.126807 10.296 0.242586 10.1801L4.38321 6.03952C4.53851 5.88427 4.74911 5.79706 4.9687 5.79706C5.18828 5.79706 5.39888 5.88427 5.55418 6.03952L9.69481 10.1801C9.81059 10.296 9.88943 10.4435 9.92137 10.6041C9.95331 10.7647 9.93691 10.9312 9.87424 11.0825C9.81158 11.2338 9.70546 11.3631 9.56931 11.4541C9.43316 11.5451 9.27308 11.5937 9.10932 11.5938H7.45307V18.2188H5.79682V10.7656C5.79682 10.546 5.88407 10.3354 6.03937 10.1801C6.19468 10.0248 6.40531 9.93751 6.62495 9.93751H7.11023L4.9687 7.79597L2.82716 9.93751H3.31245C3.53208 9.93751 3.74271 10.0248 3.89802 10.1801C4.05332 10.3354 4.14057 10.546 4.14057 10.7656V24.0156Z" fill="#56CCF2"/>
<path d="M5.79688 19.8751H7.45312V21.5313H5.79688V19.8751Z" fill="#56CCF2"/>
<path d="M49.6874 33.9531H48.0312V25.6719C48.0312 25.4522 48.1184 25.2416 48.2737 25.0863C48.4291 24.931 48.6397 24.8438 48.8593 24.8438H49.3446L47.2031 22.7022L45.0615 24.8438H45.5468C45.7665 24.8438 45.9771 24.931 46.1324 25.0863C46.2877 25.2416 46.3749 25.4522 46.3749 25.6719V28.1563H44.7187V26.5H43.0624C42.8987 26.5 42.7386 26.4514 42.6025 26.3604C42.4663 26.2694 42.3602 26.1401 42.2975 25.9888C42.2349 25.8375 42.2185 25.671 42.2504 25.5104C42.2823 25.3498 42.3612 25.2022 42.477 25.0864L46.6176 20.9458C46.7729 20.7905 46.9835 20.7033 47.2031 20.7033C47.4227 20.7033 47.6333 20.7905 47.7886 20.9458L51.9292 25.0864C52.045 25.2022 52.1238 25.3498 52.1557 25.5104C52.1877 25.671 52.1713 25.8375 52.1086 25.9888C52.046 26.1401 51.9398 26.2694 51.8037 26.3604C51.6675 26.4514 51.5075 26.5 51.3437 26.5H49.6874V33.9531Z" fill="#56CCF2"/>
<path d="M48.0311 35.6094H49.6874V37.2657H48.0311V35.6094Z" fill="#56CCF2"/>
<path d="M9.10938 46.3751H7.45312V44.7188H9.10938C9.3306 44.7332 9.55234 44.7002 9.7598 44.622C9.96726 44.5439 10.1557 44.4224 10.3124 44.2656C10.4692 44.1088 10.5907 43.9204 10.6688 43.713C10.747 43.5055 10.78 43.2838 10.7656 43.0626H12.4219C12.4347 43.501 12.3578 43.9375 12.1959 44.3452C12.0339 44.7529 11.7904 45.1232 11.4802 45.4334C11.17 45.7436 10.7997 45.9871 10.392 46.149C9.98434 46.311 9.54786 46.3879 9.10938 46.3751Z" fill="#56CCF2"/>
</g>
<defs>
<clipPath id="clip0">
<rect width="53" height="53" fill="white"/>
</clipPath>
</defs>
</svg>
