<svg width="53" height="53" viewBox="0 0 53 53" fill="none" xmlns="http://www.w3.org/2000/svg">
<path d="M48.5833 2.20831H4.4167C1.98088 2.20831 0 4.18919 0 6.62501V46.375C0 48.8108 1.98088 50.7917 4.4167 50.7917H48.5834C51.0191 50.7917 53 48.8108 53 46.375V6.62501C53 4.18919 51.0191 2.20831 48.5833 2.20831ZM50.7917 46.375C50.7917 47.5929 49.8013 48.5833 48.5834 48.5833H4.4167C3.19884 48.5833 2.2084 47.5929 2.2084 46.375V6.62501C2.2084 5.40715 3.19884 4.41672 4.4167 4.41672H48.5834C49.8013 4.41672 50.7917 5.40715 50.7917 6.62501V46.375Z" fill="#FF453A"/>
<path d="M7.72915 6.625H6.62495C6.01545 6.625 5.52075 7.11856 5.52075 7.7292C5.52075 8.33984 6.01545 8.8334 6.62495 8.8334H7.72915C8.33865 8.8334 8.83335 8.33984 8.83335 7.7292C8.83325 7.11856 8.33865 6.625 7.72915 6.625Z" fill="#FF453A"/>
<path d="M13.25 6.625H12.1458C11.5363 6.625 11.0416 7.11856 11.0416 7.7292C11.0416 8.33984 11.5363 8.8334 12.1458 8.8334H13.25C13.8595 8.8334 14.3542 8.33984 14.3542 7.7292C14.3542 7.11856 13.8595 6.625 13.25 6.625Z" fill="#FF453A"/>
<path d="M46.375 6.625H45.2708C44.6602 6.625 44.1666 7.11856 44.1666 7.7292C44.1666 8.33984 44.6602 8.8334 45.2708 8.8334H46.375C46.9857 8.8334 47.4792 8.33984 47.4792 7.7292C47.4792 7.11856 46.9857 6.625 46.375 6.625Z" fill="#FF453A"/>
<path d="M47.4792 11.0417H5.52083C4.91133 11.0417 4.41663 11.5352 4.41663 12.1459C4.41663 12.7565 4.91133 13.2501 5.52083 13.2501H47.4791C48.0898 13.2501 48.5833 12.7565 48.5833 12.1459C48.5833 11.5352 48.0898 11.0417 47.4792 11.0417Z" fill="#FF453A"/>
<path d="M36.4375 23.1875C35.8268 23.1875 35.3333 23.6811 35.3333 24.2917V35.3334C35.3333 35.944 35.8268 36.4376 36.4375 36.4376C37.0481 36.4376 37.5417 35.944 37.5417 35.3334V24.2917C37.5417 23.6811 37.0481 23.1875 36.4375 23.1875Z" fill="#FF453A"/>
<path d="M28.7083 23.1875H25.3958C24.7863 23.1875 24.2916 23.6811 24.2916 24.2917V35.3334C24.2916 35.944 24.7863 36.4376 25.3958 36.4376C26.0053 36.4376 26.5 35.9439 26.5 35.3333V32.0208H28.7083C31.1386 32.0208 32.0208 30.0399 32.0208 28.7083V26.5C32.0208 24.0698 30.04 23.1875 28.7083 23.1875ZM29.8125 28.695C29.7993 29.2052 29.5984 29.8125 28.7083 29.8125H26.5V25.3958H28.6951C29.2052 25.409 29.8125 25.6101 29.8125 26.5V28.695Z" fill="#FF453A"/>
<path d="M38.6458 23.1875H34.2291C33.6184 23.1875 33.1249 23.6811 33.1249 24.2917C33.1249 24.9023 33.6184 25.3959 34.2291 25.3959H38.6458C39.2564 25.3959 39.75 24.9023 39.75 24.2917C39.75 23.6811 39.2564 23.1875 38.6458 23.1875Z" fill="#FF453A"/>
<path d="M38.6458 34.2292H34.2291C33.6184 34.2292 33.1249 34.7228 33.1249 35.3334C33.1249 35.944 33.6184 36.4376 34.2291 36.4376H38.6458C39.2564 36.4376 39.75 35.944 39.75 35.3334C39.75 34.7228 39.2564 34.2292 38.6458 34.2292Z" fill="#FF453A"/>
<path d="M17.6667 23.1875C15.2309 23.1875 13.25 25.1684 13.25 27.6042V35.3334C13.25 35.944 13.7447 36.4376 14.3542 36.4376C14.9637 36.4376 15.4584 35.944 15.4584 35.3334V27.6042C15.4584 26.3863 16.4488 25.3959 17.6667 25.3959C18.8846 25.3959 19.875 26.3863 19.875 27.6042V35.3334C19.875 35.944 20.3697 36.4376 20.9792 36.4376C21.5887 36.4376 22.0834 35.944 22.0834 35.3334V27.6042C22.0833 25.1684 20.1024 23.1875 17.6667 23.1875Z" fill="#FF453A"/>
<path d="M20.9792 29.8125H14.3542C13.7447 29.8125 13.25 30.3061 13.25 30.9167C13.25 31.5273 13.7447 32.0209 14.3542 32.0209H20.9792C21.5887 32.0209 22.0834 31.5273 22.0834 30.9167C22.0833 30.3061 21.5887 29.8125 20.9792 29.8125Z" fill="#FF453A"/>
</svg>
