<svg width="39" height="39" viewBox="0 0 39 39" fill="none" xmlns="http://www.w3.org/2000/svg">
<path d="M38.4287 0H36.0481C35.8999 0 35.7574 0.0575859 35.6509 0.160723L31.3084 4.36221C31.0816 4.58159 31.0757 4.94325 31.2951 5.17001C31.5144 5.3967 31.876 5.40272 32.1029 5.18334L36.2792 1.14258H37.8574V15.1255L36.7347 16.2202L28.8475 8.33297L30.3514 6.87786C30.5782 6.65849 30.5842 6.29682 30.3648 6.07006C30.1453 5.84322 29.7837 5.83728 29.557 6.05673L27.6357 7.91563C27.5256 8.02212 27.4629 8.16837 27.4616 8.32147C27.4603 8.47465 27.5206 8.62189 27.6289 8.73013L28.0636 9.16485L25.683 11.5461C24.7268 11.0094 23.5042 10.747 21.7571 10.9871L13.7846 12.0854L10.9002 9.20111L11.3711 8.73021C11.4794 8.62197 11.5397 8.47473 11.5384 8.32155C11.5371 8.16844 11.4745 8.02219 11.3643 7.91571L6.43706 3.14834C6.21037 2.92896 5.84863 2.9349 5.62925 3.16167C5.40988 3.38843 5.41582 3.75009 5.64258 3.96947L10.1526 8.33297L2.26528 16.2202L1.14258 15.1255V1.14258H2.72078L3.89124 2.27503C4.118 2.49448 4.47967 2.48846 4.69904 2.2617C4.91842 2.03493 4.91248 1.67327 4.68571 1.45389L3.34912 0.160723C3.24264 0.0575859 3.1002 0 2.95189 0H0.571289C0.255785 0 0 0.255785 0 0.571289V15.3663C0 15.5203 0.0621562 15.6678 0.172453 15.7753L1.87154 17.4321C1.98253 17.5403 2.12649 17.5943 2.2703 17.5943C2.41655 17.5943 2.5628 17.5385 2.67432 17.427L3.13935 16.962L6.38549 20.2081C5.89654 20.9208 5.63253 21.7628 5.6323 22.6457C5.63192 23.8002 6.08118 24.8854 6.89713 25.7015L7.04613 25.8504L6.31571 26.5809C5.37431 27.5222 5.37431 29.054 6.31571 29.9953L6.3324 30.012C6.74708 30.4268 7.27624 30.6585 7.8192 30.7079C7.55655 31.5399 7.75384 32.4869 8.41227 33.1454L8.42887 33.162C8.88484 33.6181 9.49117 33.8692 10.1361 33.8692C10.5091 33.8692 10.8689 33.7847 11.1944 33.6257C11.2732 34.1105 11.4986 34.5759 11.8717 34.949C12.3447 35.4221 12.9659 35.6586 13.5872 35.6586C13.8006 35.6586 14.0138 35.63 14.2211 35.5742C14.2559 36.145 14.4904 36.706 14.9257 37.1413C15.3839 37.5996 15.993 37.852 16.641 37.8522H16.6417C17.2847 37.8522 17.8893 37.6033 18.3468 37.1509L19.4865 38.2902C19.9437 38.7478 20.5517 38.9998 21.1987 38.9998C21.8456 38.9998 22.4537 38.7479 22.9112 38.2904L22.9171 38.2845C23.3533 37.8487 23.6022 37.2758 23.6246 36.6627C23.8013 36.7032 23.9839 36.7246 24.1697 36.7246C24.8112 36.7246 25.4144 36.4769 25.8703 36.0267C25.8766 36.0208 25.8829 36.0149 25.889 36.0088C26.3506 35.5467 26.5857 34.9428 26.5954 34.3358C26.7542 34.3678 26.9156 34.3842 27.0771 34.3842C27.6976 34.3842 28.3183 34.1478 28.7912 33.675L28.7962 33.6699C29.4864 32.9798 29.6714 31.9735 29.3527 31.1131C29.8921 31.0505 30.3914 30.8105 30.7812 30.4208L30.7875 30.4145C31.7317 29.4703 31.7317 27.9338 30.7875 26.9896L29.6481 25.8503L31.2192 24.2792C32.3583 23.14 32.8352 21.5863 32.6526 20.0983L35.8252 16.9263L36.3256 17.4268C36.437 17.5383 36.5833 17.5941 36.7296 17.5941C36.8734 17.5941 37.0174 17.5401 37.1284 17.4319L38.8275 15.7751C38.9378 15.6676 38.9999 15.5201 38.9999 15.3661V0.571289C39 0.255785 38.7442 0 38.4287 0V0ZM10.0923 10.0091L12.3644 12.2812L11.9217 12.3422C11.2226 12.4385 10.6029 12.8009 10.1767 13.3627C9.75038 13.9247 9.56879 14.619 9.66537 15.3175C9.72029 15.7149 9.86174 16.0864 10.077 16.4114L7.14073 19.3477L3.94723 16.1541L10.0923 10.0091ZM7.12359 29.1875C6.62771 28.6917 6.62771 27.8848 7.12359 27.3889L8.25711 26.2554C8.25741 26.2551 8.25772 26.2548 8.25802 26.2545C8.25833 26.2542 8.25856 26.2539 8.25886 26.2536L10.4054 24.1071C10.6548 23.8577 10.9824 23.733 11.3099 23.733C11.6375 23.733 11.9651 23.8577 12.2145 24.1071L12.2207 24.1133C12.7195 24.6121 12.7195 25.4237 12.2207 25.9224L11.6941 26.4491C11.6941 26.4491 11.694 26.4492 11.6939 26.4492L8.93885 29.2043C8.44297 29.7002 7.63615 29.7001 7.14028 29.2042L7.12359 29.1875ZM10.136 32.7267C9.79631 32.7267 9.47692 32.5944 9.23668 32.3542L9.22007 32.3376C8.97983 32.0973 8.84752 31.7779 8.84752 31.4382C8.84752 31.0985 8.97983 30.7791 9.22007 30.5388L9.74665 30.0122C9.74665 30.0122 9.74673 30.0121 9.7468 30.012L12.5019 27.257C12.7512 27.0077 13.0788 26.883 13.4063 26.883C13.7339 26.883 14.0615 27.0077 14.3109 27.257L14.3171 27.2633C14.8159 27.7621 14.8159 28.5736 14.3171 29.0724L11.0354 32.3541C10.7952 32.5944 10.4758 32.7267 10.136 32.7267ZM12.6796 34.1411C12.1791 33.6406 12.1788 32.8267 12.6789 32.3265L15.6522 29.3532C15.9011 29.1043 16.2285 28.9798 16.5561 28.9798C16.8827 28.9798 17.2094 29.1036 17.4585 29.3512C17.7014 29.5925 17.8355 29.9138 17.8363 30.2559C17.8372 30.5977 17.7048 30.9192 17.4637 31.1613L14.4943 34.1418C13.9941 34.642 13.1801 34.6416 12.6796 34.1411ZM16.6417 36.7097H16.6413C16.2985 36.7096 15.9762 36.576 15.7337 36.3335C15.4912 36.091 15.3576 35.7687 15.3575 35.4259C15.3575 35.0832 15.4908 34.7611 15.733 34.5189L18.7063 31.5456C18.9552 31.2967 19.2826 31.1722 19.6101 31.1722C19.9367 31.1722 20.2635 31.296 20.5126 31.5435C20.7553 31.7848 20.8895 32.1062 20.8903 32.4483C20.8911 32.7901 20.7588 33.1116 20.5177 33.3537L17.9459 35.935C17.9446 35.9362 17.9432 35.9373 17.9419 35.9386C17.9405 35.9399 17.9394 35.9415 17.938 35.9428L17.5481 36.3342C17.3062 36.5764 16.9842 36.7097 16.6417 36.7097ZM22.1094 37.4765L22.1033 37.4826C21.8616 37.7243 21.5403 37.8574 21.1988 37.8574C20.8573 37.8574 20.5363 37.7243 20.2946 37.4824L19.1535 36.3419L20.9651 34.5236L22.1096 35.6682C22.3511 35.9095 22.4842 36.2305 22.4842 36.5723C22.4842 36.9139 22.3512 37.2349 22.1094 37.4765ZM30.4114 23.4714L28.8403 25.0426L27.1541 23.3563C26.931 23.1332 26.5693 23.1332 26.3463 23.3563C26.1231 23.5794 26.1231 23.9411 26.3463 24.1642L28.4348 26.2527C28.4353 26.2532 28.4358 26.2539 28.4363 26.2545C28.4369 26.255 28.4375 26.2555 28.438 26.256L29.9796 27.7976C30.4783 28.2963 30.4783 29.1079 29.9796 29.6066L29.9733 29.6129C29.4746 30.1117 28.663 30.1117 28.1642 29.6129L24.8825 26.3312C24.6594 26.1081 24.2977 26.1081 24.0747 26.3312C23.8515 26.5543 23.8515 26.916 24.0747 27.139L24.7053 27.7697C24.7058 27.7702 24.7062 27.7707 24.7067 27.7712L27.9884 31.053C28.23 31.2946 28.363 31.6158 28.363 31.9575C28.363 32.2992 28.2299 32.6205 27.9871 32.8633L27.9821 32.8683C27.4833 33.3671 26.6717 33.367 26.173 32.8683L25.8922 32.5875C25.891 32.5863 25.8899 32.585 25.8888 32.5838L25.0824 31.7777L22.8913 29.5865C22.8896 29.5849 22.8878 29.5835 22.8861 29.5818L22.6065 29.3023C22.3834 29.0791 22.0217 29.0791 21.7986 29.3023C21.5755 29.5254 21.5756 29.8872 21.7987 30.1102L24.4047 32.7157L25.082 33.393C25.5759 33.8888 25.5787 34.6922 25.0903 35.1915C25.0847 35.1967 25.0792 35.202 25.0738 35.2073C24.8325 35.4489 24.5114 35.5819 24.1697 35.5819C23.828 35.5819 23.5069 35.4489 23.265 35.2066L21.7129 33.6552C21.9224 33.291 22.0341 32.8768 22.033 32.4453C22.0314 31.7976 21.7775 31.1895 21.3181 30.7329C20.6835 30.1021 19.7827 29.8968 18.9744 30.1151C18.9398 29.5194 18.6907 28.9646 18.264 28.5405C17.6039 27.8844 16.6559 27.6885 15.8234 27.951C15.7748 27.405 15.5423 26.8722 15.1251 26.4552L15.1189 26.4489C14.7019 26.0319 14.1693 25.7994 13.6233 25.7507C13.887 24.916 13.6892 23.9657 13.0287 23.3052L13.0224 23.2989C12.0782 22.3547 10.5418 22.3547 9.5975 23.2989L7.85408 25.0423L7.70509 24.8933C6.466 23.6542 6.46669 21.6373 7.70661 20.3974L10.8992 17.2047C11.4214 17.5266 12.0338 17.656 12.6493 17.57L17.4801 16.8948C17.8163 16.8478 18.1598 16.9722 18.3984 17.2276C19.0992 17.9778 19.9873 18.5038 20.9512 18.7689L24.6234 22.4411C24.7349 22.5527 24.8812 22.6085 25.0273 22.6085C25.1735 22.6085 25.3198 22.5527 25.4313 22.4411C25.6544 22.218 25.6544 21.8563 25.4313 21.6333L22.7527 18.9547C22.8836 18.9462 23.0146 18.9334 23.1455 18.9153C23.4581 18.8723 23.6766 18.584 23.6335 18.2714C23.5904 17.9588 23.302 17.7404 22.9896 17.7835C21.5979 17.975 20.1937 17.4758 19.2333 16.4476C18.741 15.9206 18.0262 15.6647 17.3219 15.7632L12.4912 16.4385C12.093 16.494 11.6977 16.3914 11.3774 16.1493C11.058 15.9079 10.852 15.5568 10.7972 15.1607C10.7425 14.7649 10.8454 14.3715 11.087 14.0529C11.3289 13.7342 11.6807 13.5285 12.0776 13.4737L21.9129 12.1189C24.9462 11.7019 25.8947 12.9098 27.3305 14.7377C27.5034 14.9577 27.6821 15.1852 27.87 15.4161C27.8825 15.4315 27.8957 15.4461 27.9094 15.4598L27.9093 15.4598L30.4099 17.9597C31.9293 19.4803 31.9301 21.9527 30.4114 23.4714ZM32.3212 18.8143C32.0754 18.2092 31.7078 17.6424 31.2177 17.1522L28.7401 14.6753C28.5642 14.4587 28.3938 14.242 28.2291 14.0322C27.7199 13.384 27.2203 12.7491 26.6235 12.2216L28.8716 9.97296L35.0173 16.1187L32.3212 18.8143Z" fill="#F24CC4"/>
</svg>
