<svg width="39" height="39" viewBox="0 0 39 39" fill="none" xmlns="http://www.w3.org/2000/svg">
<g clip-path="url(#clip0)">
<path d="M7.27697 7.36599C7.79908 7.88756 8.60606 7.07998 8.08388 6.5584L6.59116 5.0672C6.06905 4.54556 5.26207 5.35322 5.78425 5.87479L7.27697 7.36599Z" fill="#219653"/>
<path d="M1.21019 14.4448L3.24922 14.9907C3.93724 15.1747 4.24967 14.0767 3.54444 13.8879L1.50542 13.342C0.792506 13.1514 0.497204 14.2539 1.21019 14.4448Z" fill="#219653"/>
<path d="M3.2817 22.5027L1.24267 23.0484C0.53912 23.2368 0.85596 24.3339 1.53782 24.1512L3.57685 23.6055C4.28983 23.4146 3.99453 22.3119 3.2817 22.5027Z" fill="#219653"/>
<path d="M7.36628 30.0948L5.87364 31.5859C5.35138 32.1075 6.15844 32.9151 6.68047 32.3935L8.17311 30.9024C8.69529 30.3809 7.88839 29.5731 7.36628 30.0948Z" fill="#219653"/>
<path d="M31.7332 30.0057C31.2111 29.484 30.4042 30.2918 30.9263 30.8133L32.419 32.3044C32.941 32.8261 33.7481 32.0184 33.2258 31.4968L31.7332 30.0057Z" fill="#219653"/>
<path d="M37.8007 22.9269L35.7617 22.3811C35.0487 22.1904 34.7536 23.293 35.4666 23.4839L37.5056 24.0297C38.1935 24.2139 38.5059 23.1157 37.8007 22.9269Z" fill="#219653"/>
<path d="M35.5807 14.8885C35.6295 14.8885 35.6792 14.8822 35.7286 14.869L37.7677 14.3231C38.4806 14.1322 38.1853 13.029 37.4724 13.2203L35.4334 13.7662C34.7946 13.9372 34.9429 14.8885 35.5807 14.8885Z" fill="#219653"/>
<path d="M31.2413 7.44399C31.3872 7.44399 31.5332 7.38835 31.6447 7.27701L33.1374 5.78581C33.6596 5.26423 32.8526 4.45657 32.3305 4.97822L30.8378 6.46942C30.4987 6.8081 30.7619 7.44399 31.2413 7.44399Z" fill="#219653"/>
<path d="M23.6081 3.14523C23.8876 3.22028 24.2318 3.02346 24.3074 2.74178L24.8537 0.704809C25.0448 -0.00810155 23.9423 -0.303784 23.7511 0.408974L23.2047 2.44595C23.123 2.75053 23.3036 3.06357 23.6081 3.14523Z" fill="#219653"/>
<path d="M14.5813 2.77437C14.7692 3.4748 15.8757 3.19373 15.6839 2.47854L15.1375 0.441567C14.9463 -0.271191 13.8437 0.0244912 14.0349 0.737401L14.5813 2.77437Z" fill="#219653"/>
<path d="M32.2464 14.268C32.2464 11.7072 30.4978 9.5468 28.131 8.91579C27.9618 7.90088 27.4581 6.9706 26.691 6.26834C24.5174 4.22262 20.8652 4.88552 19.5055 7.45366C19.3816 7.22769 19.2386 7.01162 19.0774 6.80856C17.9099 5.3367 15.9168 4.70956 14.1177 5.24735C12.4353 5.75042 11.1687 7.20227 10.8795 8.91837C9.91379 9.17722 9.02218 9.69422 8.32 10.4206C7.80832 10.95 8.6258 11.7466 9.14075 11.2141C9.96592 10.3606 11.1202 9.8711 12.3077 9.8711C13.0632 9.84515 13.0633 8.7555 12.3077 8.72947H12.0912C12.4148 7.60458 13.3025 6.68268 14.4448 6.3411C15.8005 5.9356 17.303 6.40861 18.1832 7.51812C18.6466 8.10218 18.9113 8.82841 18.9343 9.57374L18.9342 28.0706C18.8916 29.4226 18.0381 30.6655 16.7837 31.186C15.4833 31.7258 13.9039 31.3942 12.9281 30.3774C12.5325 29.9652 12.2452 29.4609 12.0902 28.9169H12.3076C13.0367 28.9169 13.051 27.7942 12.3222 27.7754C10.602 27.7315 9.08809 26.8134 8.37107 25.3795C8.06937 24.7762 7.98809 24.1919 7.89767 23.5334C7.84546 21.3112 7.8673 19.0739 7.88846 16.9098C7.89759 15.9749 7.90703 15.0084 7.91061 14.0459C7.91342 13.3076 6.77187 13.3042 6.76898 14.0416C6.75726 17.247 6.68077 20.3469 6.7571 23.5935C6.81632 25.9855 8.53828 28.122 10.8766 28.7129C11.027 29.6307 11.4563 30.4928 12.1043 31.1681C12.7572 31.8483 13.5942 32.2968 14.4859 32.4863C14.4646 32.9528 14.6211 33.4138 14.9357 33.7612C13.9947 34.7787 14.6246 36.4815 15.9968 36.6502C15.5604 37.7507 16.4337 39.0235 17.6241 38.9997H21.3861C22.5759 39.0236 23.4507 37.7504 23.0135 36.6501C24.3863 36.4812 25.0151 34.7781 24.0746 33.7611C24.3875 33.4154 24.5445 32.957 24.5244 32.4925C26.3416 32.1334 27.8506 30.5619 28.1309 28.7306C30.4977 28.0996 32.2463 25.9391 32.2463 23.3784V14.268H32.2464ZM21.3863 37.858H17.6243C16.8451 37.8315 16.8301 36.7141 17.6062 36.6649H21.4044C22.1811 36.7143 22.1649 37.8318 21.3863 37.858ZM22.7863 35.5233H16.2243C15.4696 35.5005 15.4202 34.4276 16.1659 34.3328C16.1853 34.3335 16.2048 34.3338 16.2243 34.3338H19.0487C19.7867 34.3338 19.7867 33.1922 19.0487 33.1922H16.2908C15.9303 33.1504 15.6893 32.962 15.6277 32.586C16.1676 32.5669 16.7079 32.4535 17.2213 32.2404C18.2035 31.8329 19.0006 31.0914 19.5006 30.1834C20.2608 31.5682 21.7093 32.5244 23.383 32.589C23.2919 33.0876 23.0033 33.1916 22.5497 33.1922C21.8116 33.1922 21.8116 34.3338 22.5497 34.3338C22.6478 34.3343 22.7466 34.3361 22.8447 34.3328C23.5904 34.4277 23.5412 35.5004 22.7863 35.5233ZM31.1048 23.3783C31.1048 25.8028 29.1301 27.7752 26.7028 27.7752C25.9476 27.801 25.9471 28.8908 26.7028 28.9168H26.9225C25.7951 32.7109 20.2661 32.0453 20.0762 28.07L20.0763 9.57481C20.2688 5.59767 25.797 4.93842 26.9225 8.72939H26.7028C26.3876 8.72939 26.132 8.98489 26.132 9.30021C26.132 9.61553 26.3876 9.87103 26.7028 9.87103C29.1301 9.87103 31.1048 11.8435 31.1048 14.2679V23.3783Z" fill="#219653"/>
<path d="M27.0269 22.9817C24.5059 22.9817 22.4551 25.0308 22.4551 27.5494C22.4551 27.8647 22.7107 28.1202 23.0259 28.1202C23.3411 28.1202 23.5967 27.8647 23.5967 27.5494C23.5967 25.6603 25.1355 24.1233 27.0269 24.1233C27.7809 24.0984 27.7836 23.0079 27.0269 22.9817Z" fill="#219653"/>
<path d="M11.9837 24.1233C13.8751 24.1233 15.4138 25.6603 15.4138 27.5494C15.4138 27.8647 15.6694 28.1202 15.9847 28.1202C16.2999 28.1202 16.5555 27.8647 16.5555 27.5494C16.5555 25.0308 14.5046 22.9817 11.9837 22.9817C11.2287 23.0079 11.2275 24.0968 11.9837 24.1233Z" fill="#219653"/>
<path d="M15.9844 10.0922C15.6691 10.0922 15.4136 10.3477 15.4136 10.663C15.4136 12.5521 13.8748 14.0891 11.9834 14.0891C11.6682 14.0891 11.4126 14.3446 11.4126 14.6599C11.4126 14.9752 11.6682 15.2307 11.9834 15.2307C14.5044 15.2307 16.5552 13.1816 16.5552 10.663C16.5552 10.3477 16.2996 10.0922 15.9844 10.0922Z" fill="#219653"/>
<path d="M27.0269 14.0891C25.1355 14.0891 23.5967 12.5521 23.5967 10.663C23.5967 10.3477 23.3411 10.0922 23.0259 10.0922C22.7107 10.0922 22.4551 10.3477 22.4551 10.663C22.4551 13.1816 24.506 15.2307 27.0269 15.2307C27.7818 15.2046 27.7831 14.1156 27.0269 14.0891Z" fill="#219653"/>
<path d="M16.3887 16.6042C16.1658 16.3812 15.8045 16.3809 15.5814 16.6038C14.9876 17.197 14.6606 17.9851 14.6606 18.8231C14.6606 19.6611 14.9876 20.4493 15.5814 21.0425C16.1035 21.5641 16.9105 20.7565 16.3883 20.2349C15.6122 19.4907 15.6122 18.1557 16.3883 17.4114C16.6113 17.1887 16.6115 16.8272 16.3887 16.6042Z" fill="#219653"/>
<path d="M22.59 21.0422C22.8591 21.2652 23.1282 21.2653 23.3973 21.0425C24.6169 19.8733 24.6169 17.773 23.3973 16.6038C22.8752 16.0822 22.0682 16.8898 22.5904 17.4114C23.3666 18.1558 23.3666 19.4907 22.5904 20.235C22.3674 20.4577 22.3673 20.8191 22.59 21.0422Z" fill="#219653"/>
</g>
<defs>
<clipPath id="clip0">
<rect width="39" height="39" fill="white"/>
</clipPath>
</defs>
</svg>
