<svg width="121" height="34" viewBox="0 0 121 34" fill="none" xmlns="http://www.w3.org/2000/svg">
<path fill-rule="evenodd" clip-rule="evenodd" d="M3.44347 0.207031C2.01793 0.207031 0.862305 1.36266 0.862305 2.78819V23.2134C0.862305 24.6389 2.01793 25.7945 3.44347 25.7945H3.56217C3.94321 26.0163 4.38621 26.1434 4.85889 26.1434H30.8321C32.2577 26.1434 33.4133 24.9878 33.4133 23.5622V4.15337C33.4133 4.00099 33.4001 3.8517 33.3748 3.70658V2.78819C33.3748 1.36266 32.2191 0.207031 30.7936 0.207031H3.44347ZM33.3748 3.70658C33.1632 2.49399 32.1053 1.57221 30.8321 1.57221H4.85889C3.43335 1.57221 2.27773 2.72783 2.27773 4.15337V23.5622C2.27773 24.5151 2.79404 25.3474 3.56217 25.7945H30.7936C32.2191 25.7945 33.3748 24.6389 33.3748 23.2134V3.70658Z" fill="#FF6600"/>
<path d="M6.22257 2.88637C5.16099 3.1396 3.97384 4.19657 3.51725 5.29757L3.25471 5.92515L3.22046 15.581C3.18622 26.3048 3.1748 26.1397 3.92818 27.2627C4.31629 27.8573 4.90986 28.3747 5.53768 28.694C6.30247 29.0684 7.14717 29.1014 15.4914 29.1014H23.7444V31.4686C23.7444 33.7036 23.7558 33.8357 23.9498 33.7366C24.0526 33.6706 24.8174 33.076 25.6278 32.3934C26.4497 31.7218 27.6825 30.6979 28.3902 30.1364L29.6573 29.1014H30.9586C33.173 29.1014 34.189 28.8041 35.125 27.8683C35.3875 27.615 35.7528 27.0976 35.924 26.7342L36.2436 26.0736V15.8893V5.70495L35.8669 4.96727C35.456 4.15252 34.7483 3.4699 33.9036 3.08455L33.3899 2.84232L19.9775 2.82031C12.6035 2.82031 6.41662 2.84232 6.22257 2.88637ZM17.6032 9.28322L17.6374 12.9166L19.9204 10.4723C22.4887 7.71979 23.2307 6.92707 23.9727 6.16737L24.4863 5.63889L25.8333 5.67192L27.1688 5.70495L26.1187 6.86101C24.7945 8.31434 19.9204 13.6432 19.5551 14.0286L19.2812 14.3149L21.1874 16.8362C24.6804 21.4494 27.5798 25.3029 27.6711 25.435C27.7396 25.5451 27.4428 25.5782 26.3355 25.5782H24.9201L23.185 23.3541C22.2262 22.121 20.5825 20.0181 19.5323 18.6749L17.6374 16.2306L17.6032 20.8989L17.5803 25.5782H16.4389H15.2974V22.11V18.6418H13.5281H11.7588V17.4858V16.3297H13.5281H15.2974V15.1736V14.0176H13.5281H11.7588V12.8065V11.5954H13.5281H15.2974V8.62262V5.6499H16.4389H17.5803L17.6032 9.28322Z" fill="#003399"/>
<path d="M57.5964 22.9999H54.025L51.2258 18.1736V22.9999H48.0083V11.7386H51.2258V16.2431L53.8641 11.7386H57.4355L54.0893 17.2084L57.5964 22.9999ZM61.3258 23.2251C60.1246 23.2251 59.1004 22.8176 58.2531 22.0025C57.4166 21.1874 56.9983 20.1792 56.9983 18.978C56.9983 17.7768 57.4166 16.7687 58.2531 15.9536C59.0897 15.1385 60.1139 14.7309 61.3258 14.7309C62.5377 14.7309 63.562 15.1385 64.3985 15.9536C65.2351 16.7687 65.6534 17.7768 65.6534 18.978C65.6534 20.1792 65.2351 21.1874 64.3985 22.0025C63.562 22.8176 62.5377 23.2251 61.3258 23.2251ZM60.3445 20.0076C60.6019 20.265 60.929 20.3937 61.3258 20.3937C61.7226 20.3937 62.0444 20.265 62.2911 20.0076C62.5485 19.7395 62.6772 19.3963 62.6772 18.978C62.6772 18.5598 62.5485 18.2219 62.2911 17.9645C62.0444 17.6964 61.7226 17.5623 61.3258 17.5623C60.929 17.5623 60.6019 17.6964 60.3445 17.9645C60.0978 18.2219 59.9745 18.5598 59.9745 18.978C59.9745 19.3963 60.0978 19.7395 60.3445 20.0076ZM66.59 22.9999V11.256H69.5661V22.9999H66.59ZM74.7897 23.2251C73.5885 23.2251 72.5642 22.8176 71.717 22.0025C70.8804 21.1874 70.4621 20.1792 70.4621 18.978C70.4621 17.7768 70.8804 16.7687 71.717 15.9536C72.5535 15.1385 73.5778 14.7309 74.7897 14.7309C76.0016 14.7309 77.0258 15.1385 77.8624 15.9536C78.6989 16.7687 79.1172 17.7768 79.1172 18.978C79.1172 20.1792 78.6989 21.1874 77.8624 22.0025C77.0258 22.8176 76.0016 23.2251 74.7897 23.2251ZM73.8083 20.0076C74.0657 20.265 74.3929 20.3937 74.7897 20.3937C75.1865 20.3937 75.5083 20.265 75.7549 20.0076C76.0123 19.7395 76.141 19.3963 76.141 18.978C76.141 18.5598 76.0123 18.2219 75.7549 17.9645C75.5083 17.6964 75.1865 17.5623 74.7897 17.5623C74.3929 17.5623 74.0657 17.6964 73.8083 17.9645C73.5617 18.2219 73.4383 18.5598 73.4383 18.978C73.4383 19.3963 73.5617 19.7395 73.8083 20.0076ZM89.5454 14.7309C90.4785 14.7309 91.2078 15.0259 91.7333 15.6157C92.2589 16.1949 92.5216 17.0261 92.5216 18.1093V22.9999H89.5454V18.5115C89.5454 17.9002 89.2719 17.5945 88.725 17.5945C88.0922 17.5945 87.7758 17.9913 87.7758 18.785V22.9999H84.7996V18.5115C84.7996 17.9002 84.5261 17.5945 83.9792 17.5945C83.3464 17.5945 83.03 17.9913 83.03 18.785V22.9999H80.0538V14.9562H83.03V15.7123C83.5555 15.058 84.2848 14.7309 85.2179 14.7309C86.1402 14.7309 86.8106 15.0634 87.2288 15.7283C87.808 15.0634 88.5802 14.7309 89.5454 14.7309ZM97.6641 23.2251C96.4629 23.2251 95.4387 22.8176 94.5914 22.0025C93.7548 21.1874 93.3366 20.1792 93.3366 18.978C93.3366 17.7768 93.7548 16.7687 94.5914 15.9536C95.4279 15.1385 96.4522 14.7309 97.6641 14.7309C98.876 14.7309 99.9003 15.1385 100.737 15.9536C101.574 16.7687 101.992 17.7768 101.992 18.978C101.992 20.1792 101.574 21.1874 100.737 22.0025C99.9003 22.8176 98.876 23.2251 97.6641 23.2251ZM96.6828 20.0076C96.9402 20.265 97.2673 20.3937 97.6641 20.3937C98.0609 20.3937 98.3827 20.265 98.6293 20.0076C98.8867 19.7395 99.0154 19.3963 99.0154 18.978C99.0154 18.5598 98.8867 18.2219 98.6293 17.9645C98.3827 17.6964 98.0609 17.5623 97.6641 17.5623C97.2673 17.5623 96.9402 17.6964 96.6828 17.9645C96.4361 18.2219 96.3127 18.5598 96.3127 18.978C96.3127 19.3963 96.4361 19.7395 96.6828 20.0076ZM108.06 14.7309C108.94 14.7309 109.642 15.0366 110.168 15.6479C110.704 16.2485 110.972 17.1494 110.972 18.3506V22.9999H107.996V18.6724C107.996 17.9538 107.664 17.5945 106.999 17.5945C106.645 17.5945 106.371 17.7071 106.178 17.9323C105.996 18.1576 105.905 18.4686 105.905 18.8654V22.9999H102.928V14.9562H105.905V15.7444C106.398 15.0688 107.117 14.7309 108.06 14.7309ZM113.678 14.3448C113.228 14.3448 112.836 14.1839 112.504 13.8622C112.182 13.5297 112.021 13.1436 112.021 12.7039C112.021 12.2642 112.182 11.8834 112.504 11.5617C112.836 11.2292 113.228 11.063 113.678 11.063C114.118 11.063 114.498 11.2292 114.82 11.5617C115.153 11.8834 115.319 12.2642 115.319 12.7039C115.319 13.1436 115.153 13.5297 114.82 13.8622C114.498 14.1839 114.118 14.3448 113.678 14.3448ZM112.182 22.9999V14.9562H115.158V22.9999H112.182Z" fill="#383838"/>
<path d="M51.8024 26.9773V30.9935H51.4007V27.5855L49.995 29.9378H49.9377L48.532 27.5855V30.9935H48.1304V26.9773H48.6295L49.9664 29.2149L51.3032 26.9773H51.8024ZM55.0659 30.6321C54.7752 30.919 54.4194 31.0624 53.9987 31.0624C53.5779 31.0624 53.2203 30.919 52.9258 30.6321C52.6351 30.3414 52.4897 29.9837 52.4897 29.5592C52.4897 29.1346 52.6351 28.7789 52.9258 28.492C53.2203 28.2013 53.5779 28.0559 53.9987 28.0559C54.4194 28.0559 54.7752 28.2013 55.0659 28.492C55.3604 28.7789 55.5077 29.1346 55.5077 29.5592C55.5077 29.9837 55.3604 30.3414 55.0659 30.6321ZM53.1954 30.3682C53.4135 30.5862 53.6812 30.6952 53.9987 30.6952C54.3162 30.6952 54.5839 30.5862 54.8019 30.3682C55.02 30.1463 55.129 29.8766 55.129 29.5592C55.129 29.2417 55.02 28.9739 54.8019 28.7559C54.5839 28.5341 54.3162 28.4231 53.9987 28.4231C53.6812 28.4231 53.4135 28.5341 53.1954 28.7559C52.9774 28.9739 52.8684 29.2417 52.8684 29.5592C52.8684 29.8766 52.9774 30.1463 53.1954 30.3682ZM56.52 28.601C56.696 28.2529 56.9981 28.0789 57.4265 28.0789V28.4461C57.1664 28.4461 56.9503 28.5226 56.7782 28.6756C56.6061 28.8286 56.52 29.0696 56.52 29.3985V30.9935H56.1413V28.1248H56.52V28.601ZM59.0972 28.0559C59.5218 28.0559 59.8641 28.207 60.1242 28.5092C60.3881 28.8076 60.5201 29.1614 60.5201 29.5706C60.5201 29.6127 60.5163 29.672 60.5086 29.7485H57.9898C58.0281 30.0392 58.1505 30.2706 58.357 30.4427C58.5674 30.611 58.8256 30.6952 59.1316 30.6952C59.3496 30.6952 59.5371 30.6512 59.6939 30.5632C59.8545 30.4714 59.975 30.3529 60.0553 30.2075L60.3881 30.4026C60.2619 30.6053 60.0898 30.766 59.8717 30.8845C59.6537 31.0031 59.4051 31.0624 59.1259 31.0624C58.6745 31.0624 58.3073 30.9209 58.0243 30.6378C57.7412 30.3548 57.5997 29.9952 57.5997 29.5592C57.5997 29.1308 57.7393 28.7731 58.0185 28.4863C58.2978 28.1994 58.6573 28.0559 59.0972 28.0559ZM59.0972 28.4231C58.7988 28.4231 58.5483 28.513 58.3456 28.6928C58.1467 28.8688 58.0281 29.0983 57.9898 29.3813H60.1299C60.0917 29.0791 59.975 28.8439 59.7799 28.6756C59.5849 28.5073 59.3573 28.4231 59.0972 28.4231ZM64.0772 28.492H63.251V30.2305C63.251 30.3873 63.2816 30.5001 63.3428 30.569C63.404 30.634 63.4958 30.6684 63.6182 30.6722C63.7406 30.6722 63.8936 30.6684 64.0772 30.6608V30.9935C63.6756 31.0547 63.3734 31.0261 63.1707 30.9075C62.9718 30.7889 62.8724 30.5632 62.8724 30.2305V28.492H62.2699V28.1248H62.8724V27.4363L63.251 27.3215V28.1248H64.0772V28.492ZM66.0509 28.0559C66.399 28.0559 66.6725 28.163 66.8714 28.3772C67.0741 28.5876 67.1755 28.8726 67.1755 29.2321V30.9935H66.7968V29.2321C66.7968 28.9759 66.728 28.777 66.5903 28.6354C66.4564 28.4939 66.2651 28.4231 66.0165 28.4231C65.7411 28.4231 65.5174 28.5111 65.3452 28.6871C65.1731 28.8592 65.087 29.1269 65.087 29.4903V30.9935H64.7084V26.9773H65.087V28.5723C65.3012 28.2281 65.6225 28.0559 66.0509 28.0559ZM70.3748 28.1248H70.7535V30.9935H70.3748V30.4313C70.1109 30.852 69.7246 31.0624 69.2158 31.0624C68.8066 31.0624 68.4566 30.917 68.1659 30.6263C67.879 30.3356 67.7356 29.9799 67.7356 29.5592C67.7356 29.1384 67.879 28.7827 68.1659 28.492C68.4566 28.2013 68.8066 28.0559 69.2158 28.0559C69.7246 28.0559 70.1109 28.2663 70.3748 28.6871V28.1248ZM68.4413 30.3682C68.6593 30.5862 68.9271 30.6952 69.2445 30.6952C69.562 30.6952 69.8298 30.5862 70.0478 30.3682C70.2658 30.1463 70.3748 29.8766 70.3748 29.5592C70.3748 29.2417 70.2658 28.9739 70.0478 28.7559C69.8298 28.5341 69.562 28.4231 69.2445 28.4231C68.9271 28.4231 68.6593 28.5341 68.4413 28.7559C68.2233 28.9739 68.1142 29.2417 68.1142 29.5592C68.1142 29.8766 68.2233 30.1463 68.4413 30.3682ZM72.8978 28.0559C73.2459 28.0559 73.5194 28.163 73.7183 28.3772C73.921 28.5876 74.0224 28.8726 74.0224 29.2321V30.9935H73.6437V29.2321C73.6437 28.9759 73.5749 28.777 73.4372 28.6354C73.3033 28.4939 73.112 28.4231 72.8634 28.4231C72.588 28.4231 72.3643 28.5111 72.1921 28.6871C72.02 28.8592 71.9339 29.1269 71.9339 29.4903V30.9935H71.5553V28.1248H71.9339V28.5723C72.1481 28.2281 72.4694 28.0559 72.8978 28.0559ZM76.3209 27.0461C76.3745 26.9926 76.4395 26.9658 76.516 26.9658C76.5925 26.9658 76.6575 26.9926 76.7111 27.0461C76.7646 27.0997 76.7914 27.1647 76.7914 27.2412C76.7914 27.3177 76.7646 27.3827 76.7111 27.4363C76.6575 27.4898 76.5925 27.5166 76.516 27.5166C76.4395 27.5166 76.3745 27.4898 76.3209 27.4363C76.2674 27.3827 76.2406 27.3177 76.2406 27.2412C76.2406 27.1647 76.2674 27.0997 76.3209 27.0461ZM76.3267 31.223V28.1248H76.7053V31.223C76.7053 31.5673 76.6155 31.8255 76.4357 31.9976C76.2559 32.1697 76.0015 32.2405 75.6726 32.2099V31.8427C75.8983 31.8656 76.0627 31.8293 76.166 31.7337C76.2731 31.6381 76.3267 31.4678 76.3267 31.223ZM79.5309 28.1248H79.9096V30.9935H79.5309V30.546C79.3167 30.8903 78.9954 31.0624 78.567 31.0624C78.2189 31.0624 77.9435 30.9572 77.7408 30.7468C77.5419 30.5326 77.4424 30.2458 77.4424 29.8862V28.1248H77.8211V29.8862C77.8211 30.1425 77.888 30.3414 78.0219 30.4829C78.1596 30.6244 78.3528 30.6952 78.6014 30.6952C78.8768 30.6952 79.1006 30.6091 79.2727 30.437C79.4448 30.2611 79.5309 29.9914 79.5309 29.628V28.1248ZM81.009 28.8764C81.009 29.0065 81.0663 29.1097 81.1811 29.1862C81.2958 29.2627 81.4355 29.322 81.5999 29.3641C81.7644 29.4062 81.9289 29.454 82.0934 29.5075C82.2578 29.5573 82.3974 29.6433 82.5122 29.7657C82.6269 29.8843 82.6843 30.0411 82.6843 30.2362C82.6843 30.481 82.5868 30.6799 82.3917 30.8329C82.2005 30.9859 81.9518 31.0624 81.6458 31.0624C81.3704 31.0624 81.1352 31.0012 80.9401 30.8788C80.7489 30.7564 80.615 30.5977 80.5385 30.4026L80.8598 30.2132C80.9133 30.3624 81.009 30.481 81.1467 30.569C81.2882 30.6531 81.4546 30.6952 81.6458 30.6952C81.8333 30.6952 81.9901 30.6589 82.1163 30.5862C82.2425 30.5097 82.3056 30.393 82.3056 30.2362C82.3056 30.1061 82.2483 30.0029 82.1335 29.9264C82.0188 29.8499 81.8792 29.7906 81.7147 29.7485C81.5502 29.7064 81.3857 29.6605 81.2213 29.6108C81.0568 29.5573 80.9172 29.4712 80.8024 29.3526C80.6877 29.2302 80.6303 29.0715 80.6303 28.8764C80.6303 28.6431 80.7221 28.448 80.9057 28.2912C81.0931 28.1344 81.3284 28.0559 81.6114 28.0559C81.8447 28.0559 82.0494 28.1095 82.2253 28.2166C82.4013 28.3199 82.5313 28.4614 82.6155 28.6412L82.2999 28.8248C82.189 28.557 81.9595 28.4231 81.6114 28.4231C81.4469 28.4231 81.3054 28.4633 81.1868 28.5436C81.0683 28.6201 81.009 28.7311 81.009 28.8764ZM84.7244 28.492H83.8982V30.2305C83.8982 30.3873 83.9288 30.5001 83.99 30.569C84.0512 30.634 84.143 30.6684 84.2654 30.6722C84.3878 30.6722 84.5408 30.6684 84.7244 30.6608V30.9935C84.3228 31.0547 84.0206 31.0261 83.8179 30.9075C83.619 30.7889 83.5195 30.5632 83.5195 30.2305V28.492H82.9171V28.1248H83.5195V27.4363L83.8982 27.3215V28.1248H84.7244V28.492ZM89.257 28.1248H89.6357V30.9935H89.257V30.4313C88.9931 30.852 88.6068 31.0624 88.098 31.0624C87.6888 31.0624 87.3388 30.917 87.0481 30.6263C86.7612 30.3356 86.6178 29.9799 86.6178 29.5592C86.6178 29.1384 86.7612 28.7827 87.0481 28.492C87.3388 28.2013 87.6888 28.0559 88.098 28.0559C88.6068 28.0559 88.9931 28.2663 89.257 28.6871V28.1248ZM87.3235 30.3682C87.5415 30.5862 87.8093 30.6952 88.1267 30.6952C88.4442 30.6952 88.712 30.5862 88.93 30.3682C89.148 30.1463 89.257 29.8766 89.257 29.5592C89.257 29.2417 89.148 28.9739 88.93 28.7559C88.712 28.5341 88.4442 28.4231 88.1267 28.4231C87.8093 28.4231 87.5415 28.5341 87.3235 28.7559C87.1055 28.9739 86.9964 29.2417 86.9964 29.5592C86.9964 29.8766 87.1055 30.1463 87.3235 30.3682ZM91.78 28.0559C92.1281 28.0559 92.4016 28.163 92.6005 28.3772C92.8032 28.5876 92.9046 28.8726 92.9046 29.2321V30.9935H92.5259V29.2321C92.5259 28.9759 92.4571 28.777 92.3194 28.6354C92.1855 28.4939 91.9942 28.4231 91.7456 28.4231C91.4702 28.4231 91.2465 28.5111 91.0743 28.6871C90.9022 28.8592 90.8161 29.1269 90.8161 29.4903V30.9935H90.4375V28.1248H90.8161V28.5723C91.0303 28.2281 91.3516 28.0559 91.78 28.0559ZM97.8022 30.9935L97.4293 30.0067H95.5244L95.1515 30.9935H94.7269L96.2703 26.9773H96.6834L98.2268 30.9935H97.8022ZM95.6679 29.628H97.2858L96.4769 27.4765L95.6679 29.628ZM100.223 28.0559C100.632 28.0559 100.98 28.2013 101.267 28.492C101.558 28.7827 101.703 29.1384 101.703 29.5592C101.703 29.9799 101.558 30.3356 101.267 30.6263C100.98 30.917 100.632 31.0624 100.223 31.0624C99.7141 31.0624 99.3277 30.852 99.0638 30.4313V32.141H98.6851V28.1248H99.0638V28.6871C99.3277 28.2663 99.7141 28.0559 100.223 28.0559ZM99.3908 30.3682C99.6089 30.5862 99.8766 30.6952 100.194 30.6952C100.512 30.6952 100.779 30.5862 100.997 30.3682C101.215 30.1463 101.324 29.8766 101.324 29.5592C101.324 29.2417 101.215 28.9739 100.997 28.7559C100.779 28.5341 100.512 28.4231 100.194 28.4231C99.8766 28.4231 99.6089 28.5341 99.3908 28.7559C99.1728 28.9739 99.0638 29.2417 99.0638 29.5592C99.0638 29.8766 99.1728 30.1463 99.3908 30.3682ZM103.87 28.0559C104.28 28.0559 104.628 28.2013 104.915 28.492C105.205 28.7827 105.351 29.1384 105.351 29.5592C105.351 29.9799 105.205 30.3356 104.915 30.6263C104.628 30.917 104.28 31.0624 103.87 31.0624C103.362 31.0624 102.975 30.852 102.711 30.4313V32.141H102.333V28.1248H102.711V28.6871C102.975 28.2663 103.362 28.0559 103.87 28.0559ZM103.039 30.3682C103.257 30.5862 103.524 30.6952 103.842 30.6952C104.159 30.6952 104.427 30.5862 104.645 30.3682C104.863 30.1463 104.972 29.8766 104.972 29.5592C104.972 29.2417 104.863 28.9739 104.645 28.7559C104.427 28.5341 104.159 28.4231 103.842 28.4231C103.524 28.4231 103.257 28.5341 103.039 28.7559C102.82 28.9739 102.711 29.2417 102.711 29.5592C102.711 29.8766 102.82 30.1463 103.039 30.3682Z" fill="#828282"/>
</svg>
