<svg width="53" height="53" viewBox="0 0 53 53" fill="none" xmlns="http://www.w3.org/2000/svg">
<g clip-path="url(#clip0)">
<path d="M42.4 21.2C48.2452 21.2 53 16.4452 53 10.6C53 4.75482 48.2452 0 42.4 0C38.1554 0 34.4957 2.51327 32.8045 6.12511L29.966 5.07744C29.9997 4.86006 30.0333 4.64268 30.0333 4.41667C30.0333 1.98146 28.0519 0 25.6167 0C23.1815 0 21.2 1.98146 21.2 4.41667C21.2 6.85187 23.1815 8.83333 25.6167 8.83333C27.1987 8.83333 28.5785 7.98968 29.3583 6.73628L32.1921 7.78222C31.9432 8.68151 31.8 9.62307 31.8 10.6C31.8 11.7572 31.9924 12.8683 32.337 13.9116L22.622 18.029C20.8433 14.666 17.3126 12.3667 13.25 12.3667C11.9336 12.3667 10.6776 12.6194 9.51352 13.0594L7.07012 7.92455C8.1346 7.11713 8.83333 5.85208 8.83333 4.41667C8.83333 1.98146 6.85187 0 4.41667 0C1.98146 0 0 1.98146 0 4.41667C0 6.85187 1.98146 8.83333 4.41667 8.83333C4.78415 8.83333 5.13653 8.77511 5.47856 8.68927L7.91895 13.8189C4.77336 15.6598 2.65 19.0659 2.65 22.9667C2.65 26.6307 4.51932 29.8647 7.35306 31.7689L5.73735 34.6734C5.31682 34.541 4.87947 34.45 4.41667 34.45C1.98146 34.45 0 36.4315 0 38.8667C0 41.3019 1.98146 43.2833 4.41667 43.2833C6.85187 43.2833 8.83333 41.3019 8.83333 38.8667C8.83333 37.5292 8.22302 36.343 7.28146 35.533L8.90062 32.6225C10.2291 33.2238 11.699 33.5667 13.25 33.5667C15.674 33.5667 17.9035 32.7398 19.6913 31.3652L23.1681 35.1901C21.4049 37.084 20.3167 39.6141 20.3167 42.4C20.3167 42.9404 20.3706 43.4671 20.4482 43.9855L16.3576 44.9564C15.6537 43.4511 14.1351 42.4 12.3667 42.4C9.93146 42.4 7.95 44.3815 7.95 46.8167C7.95 49.2519 9.93146 51.2333 12.3667 51.2333C14.8019 51.2333 16.7833 49.2519 16.7833 46.8167C16.7833 46.7679 16.77 46.7222 16.7691 46.6735L20.8519 45.7056C22.2442 49.9355 26.2261 53 30.9167 53C36.7618 53 41.5167 48.2452 41.5167 42.4C41.5167 40.5876 41.0582 38.8809 40.2525 37.3881L45.4412 34.0144C46.2435 34.827 47.3545 35.3333 48.5833 35.3333C51.0185 35.3333 53 33.3519 53 30.9167C53 28.4815 51.0185 26.5 48.5833 26.5C46.1481 26.5 44.1667 28.4815 44.1667 30.9167C44.1667 31.4873 44.284 32.0295 44.482 32.5306L39.2812 35.9117C38.2404 34.5738 36.8891 33.4933 35.3333 32.7761L39.6448 20.8239C40.5246 21.0611 41.4459 21.2 42.4 21.2ZM25.6167 7.06667C24.1558 7.06667 22.9667 5.87753 22.9667 4.41667C22.9667 2.9558 24.1558 1.76667 25.6167 1.76667C27.0775 1.76667 28.2667 2.9558 28.2667 4.41667C28.2667 5.87753 27.0775 7.06667 25.6167 7.06667ZM1.76667 4.41667C1.76667 2.9558 2.9558 1.76667 4.41667 1.76667C5.87753 1.76667 7.06667 2.9558 7.06667 4.41667C7.06667 5.87753 5.87753 7.06667 4.41667 7.06667C2.9558 7.06667 1.76667 5.87753 1.76667 4.41667ZM4.41667 41.5167C2.9558 41.5167 1.76667 40.3275 1.76667 38.8667C1.76667 37.4058 2.9558 36.2167 4.41667 36.2167C5.87753 36.2167 7.06667 37.4058 7.06667 38.8667C7.06667 40.3275 5.87753 41.5167 4.41667 41.5167ZM12.3667 49.4667C10.9058 49.4667 9.71667 48.2775 9.71667 46.8167C9.71667 45.3558 10.9058 44.1667 12.3667 44.1667C13.8275 44.1667 15.0167 45.3558 15.0167 46.8167C15.0167 48.2775 13.8275 49.4667 12.3667 49.4667ZM48.5833 28.2667C50.0442 28.2667 51.2333 29.4558 51.2333 30.9167C51.2333 32.3775 50.0442 33.5667 48.5833 33.5667C47.1225 33.5667 45.9333 32.3775 45.9333 30.9167C45.9333 29.4558 47.1225 28.2667 48.5833 28.2667ZM37.1979 17.7232C37.5921 15.68 39.3933 14.1333 41.5167 14.1333H43.2833C45.4067 14.1333 47.2079 15.68 47.6021 17.7232C46.1408 18.7928 44.3461 19.4333 42.4 19.4333C40.4539 19.4333 38.6592 18.7928 37.1979 17.7232ZM42.4 12.3667C40.9391 12.3667 39.75 11.1775 39.75 9.71667C39.75 8.2558 40.9391 7.06667 42.4 7.06667C43.8609 7.06667 45.05 8.2558 45.05 9.71667C45.05 11.1775 43.8609 12.3667 42.4 12.3667ZM42.4 1.76667C47.2708 1.76667 51.2333 5.72916 51.2333 10.6C51.2333 12.8083 50.4125 14.826 49.0673 16.3762C48.4483 14.7462 47.1578 13.4454 45.5499 12.8032C46.3319 12.0061 46.8167 10.9179 46.8167 9.71667C46.8167 7.28146 44.8352 5.3 42.4 5.3C39.9648 5.3 37.9833 7.28146 37.9833 9.71667C37.9833 10.9179 38.4681 12.0061 39.2501 12.8032C37.6422 13.4454 36.3517 14.7462 35.7327 16.3762C34.3875 14.826 33.5667 12.8083 33.5667 10.6C33.5667 5.72916 37.5292 1.76667 42.4 1.76667ZM4.41667 22.9667C4.41667 18.0958 8.37916 14.1333 13.25 14.1333C18.1208 14.1333 22.0833 18.0958 22.0833 22.9667C22.0833 25.1819 21.2574 27.2048 19.9052 28.7571C19.2884 27.1211 17.9953 25.8138 16.3831 25.1698C17.1642 24.3728 17.649 23.2845 17.649 22.0833C17.649 19.6481 15.6675 17.6667 13.2323 17.6667C10.7971 17.6667 8.81565 19.6481 8.81565 22.0833C8.81565 23.2845 9.30045 24.3728 10.0824 25.1698C8.47922 25.809 7.19045 27.1051 6.56936 28.7286C5.23185 27.1802 4.41667 25.169 4.41667 22.9667ZM10.5823 22.0833C10.5823 20.6225 11.7715 19.4333 13.2323 19.4333C14.6932 19.4333 15.8823 20.6225 15.8823 22.0833C15.8823 23.5442 14.6932 24.7333 13.2323 24.7333C11.7715 24.7333 10.5823 23.5442 10.5823 22.0833ZM8.03324 30.0782C8.43135 28.0407 10.2299 26.5 12.349 26.5H14.1156C16.2429 26.5 18.0475 28.0519 18.4361 30.1015C16.9779 31.1647 15.1888 31.8 13.25 31.8C11.297 31.8 9.4967 31.1552 8.03324 30.0782ZM25.6999 49.5115C26.098 47.474 27.8966 45.9333 30.0156 45.9333H31.7823C33.9096 45.9333 35.7142 47.4852 36.1028 49.5348C34.6445 50.598 32.8554 51.2333 30.9167 51.2333C28.9637 51.2333 27.1634 50.5885 25.6999 49.5115ZM30.899 44.1667C29.4381 44.1667 28.249 42.9775 28.249 41.5167C28.249 40.0558 29.4381 38.8667 30.899 38.8667C32.3598 38.8667 33.549 40.0558 33.549 41.5167C33.549 42.9775 32.3598 44.1667 30.899 44.1667ZM39.75 42.4C39.75 44.6152 38.924 46.6381 37.5719 48.1904C36.9551 46.5544 35.662 45.2471 34.0497 44.6032C34.8309 43.8061 35.3157 42.7179 35.3157 41.5167C35.3157 39.0815 33.3342 37.1 30.899 37.1C28.4638 37.1 26.4823 39.0815 26.4823 41.5167C26.4823 42.7179 26.9671 43.8061 27.7491 44.6032C26.1459 45.2424 24.8571 46.5385 24.236 48.1619C22.8985 46.6135 22.0833 44.6023 22.0833 42.4C22.0833 37.5292 26.0458 33.5667 30.9167 33.5667C35.7875 33.5667 39.75 37.5292 39.75 42.4ZM33.6719 32.1761C32.792 31.9389 31.8707 31.8 30.9167 31.8C28.4927 31.8 26.2632 32.6268 24.4754 34.0014L20.9986 30.1765C22.7618 28.2826 23.85 25.7525 23.85 22.9667C23.85 21.8094 23.6576 20.6984 23.313 19.655L33.028 15.5377C34.1162 17.5951 35.8626 19.2461 37.9842 20.2239L33.6719 32.1761Z" fill="#34C759"/>
</g>
<defs>
<clipPath id="clip0">
<rect width="53" height="53" fill="white"/>
</clipPath>
</defs>
</svg>
