<svg width="39" height="39" viewBox="0 0 39 39" fill="none" xmlns="http://www.w3.org/2000/svg">
<path d="M13.9662 29.4045C13.6513 29.4045 13.396 29.6598 13.396 29.9748V32.9777C13.396 33.2927 13.6513 33.548 13.9662 33.548C14.2811 33.548 14.5364 33.2927 14.5364 32.9777V29.9748C14.5364 29.6598 14.2811 29.4045 13.9662 29.4045Z" fill="#2D9CDB"/>
<path d="M25.0038 29.4045C24.6889 29.4045 24.4336 29.6598 24.4336 29.9748V32.9777C24.4336 33.2927 24.6889 33.548 25.0038 33.548C25.3187 33.548 25.574 33.2927 25.574 32.9777V29.9748C25.574 29.6598 25.3187 29.4045 25.0038 29.4045Z" fill="#2D9CDB"/>
<path d="M36.0833 27.4139L34.174 26.6479V26.1602C34.5489 25.9519 34.8854 25.6809 35.1686 25.3609C36.3763 25.5035 37.5318 25.0214 38.2799 24.0515C39.0535 23.0485 39.2144 21.756 38.7105 20.5939L37.8531 18.617C37.7887 18.4684 37.7443 18.3117 37.7212 18.1514C37.5365 16.8673 36.8947 15.6922 35.9142 14.8427C34.9336 13.9931 33.6792 13.5253 32.3818 13.5253C31.0845 13.5253 29.83 13.9931 28.8494 14.8427C27.869 15.6922 27.2271 16.8672 27.0424 18.1514C27.0193 18.3118 26.975 18.4685 26.9105 18.617L26.0532 20.5939C25.5493 21.7559 25.7102 23.0485 26.4838 24.0515C27.1456 24.9095 28.126 25.3876 29.1794 25.3876C29.3153 25.3876 29.4525 25.3795 29.5904 25.3633C29.8474 25.6547 30.1488 25.9057 30.4844 26.1055V26.6478L28.5752 27.4139C28.4507 27.4638 28.3293 27.5203 28.2108 27.5828C27.8414 26.9033 27.314 26.3092 26.6577 25.8578L24.1709 24.1475C24.1852 23.8335 24.0596 23.5171 23.8038 23.3L22.7933 22.4426C22.6975 22.3612 22.5898 22.2998 22.4761 22.2581V21.1036C23.5442 20.3289 24.3016 19.1518 24.5236 17.7962H24.5845C25.6717 17.7962 26.5562 16.9117 26.5562 15.8246C26.5562 15.3604 26.3945 14.9335 26.1252 14.5963L26.5328 11.6987C26.8265 9.60992 25.3682 7.65819 23.2818 7.34784L23.2007 7.33583C22.5335 6.24695 21.5002 5.46134 20.2604 5.10978L20.1112 5.06744C18.4674 4.60138 16.7092 4.87957 15.2873 5.83084C15.0255 6.00593 14.9553 6.36008 15.1304 6.62177C15.3055 6.88346 15.6595 6.95378 15.9214 6.77861C17.0649 6.01361 18.4786 5.78986 19.8 6.16461L19.9493 6.20695C20.9867 6.50111 21.8383 7.18666 22.3472 8.13732C22.6973 8.7914 22.8519 9.51071 22.8073 10.2302L22.4208 9.898C22.0674 9.59434 21.5479 9.58628 21.1856 9.87899L20.6786 10.2886H17.7842C15.9061 10.2886 14.3781 11.8166 14.3781 13.6947V13.8531C14.2268 13.8536 14.0798 13.8717 13.9384 13.9046C13.2937 12.0898 13.4755 10.0451 14.4444 8.37256C14.6023 8.09999 14.5094 7.75117 14.2369 7.59326C13.9644 7.4355 13.6156 7.52833 13.4577 7.80082C12.2859 9.82364 12.0959 12.3106 12.9383 14.4872C12.613 14.8389 12.4137 15.3088 12.4137 15.8246C12.4137 16.9117 13.2982 17.7962 14.3854 17.7962H14.4463C14.6683 19.1518 15.4257 20.3289 16.4938 21.1036V22.2581C16.38 22.2997 16.2724 22.3612 16.1767 22.4425L15.1661 23.3C14.9103 23.5171 14.7847 23.8335 14.799 24.1475L12.3122 25.8578C11.8068 26.2053 11.3777 26.6375 11.0383 27.1281C10.8184 27.0066 10.5892 26.9027 10.3518 26.8186L8.66336 26.2206V25.7712C9.5234 25.2398 10.1417 24.3541 10.3139 23.3192H10.569C11.5695 23.3192 12.3834 22.5053 12.3834 21.5049C12.3834 21.0557 12.219 20.6446 11.9476 20.3274L12.0494 19.1223C12.1909 17.3868 11.4337 15.7407 10.0237 14.7191C8.61379 13.6973 6.81366 13.4903 5.20854 14.1651L4.07198 14.643C2.31215 15.0315 1.13591 16.7178 1.38718 18.509L1.64142 20.3215C1.36711 20.6395 1.20068 21.053 1.20068 21.5049C1.20068 22.5053 2.01457 23.3192 3.01503 23.3192H3.27019C3.43121 24.287 3.9825 25.124 4.75662 25.6631V26.2206L3.06818 26.8186C2.83173 26.9024 2.59878 27.0073 2.37586 27.1306C2.10026 27.283 2.00035 27.6299 2.15272 27.9055C2.25672 28.0936 2.45143 28.1999 2.65222 28.1999C2.74551 28.1999 2.84017 28.1769 2.9276 28.1285C3.09585 28.0355 3.27125 27.9564 3.44878 27.8935L4.90777 27.3768C5.20322 28.0809 5.89964 28.5768 6.70988 28.5768C7.52011 28.5768 8.21654 28.0809 8.51199 27.3768L9.97098 27.8936C10.1545 27.9585 10.3317 28.0394 10.5014 28.1342C10.2749 28.7084 10.1535 29.3271 10.1535 29.9621V33.3449C10.1535 33.6599 10.4088 33.9151 10.7237 33.9151C11.0386 33.9151 11.294 33.6599 11.294 33.3449V29.9621C11.294 28.6972 11.9162 27.5142 12.9583 26.7975L15.3331 25.1643L16.3065 26.4657C16.5158 26.7455 16.8438 26.9031 17.1822 26.9031C17.2876 26.9031 17.394 26.8878 17.4981 26.8561L18.9146 26.425V33.5836C18.9146 33.8986 19.1699 34.1538 19.4848 34.1538C19.7997 34.1538 20.055 33.8986 20.055 33.5836V26.425L21.4717 26.8562C21.5758 26.8878 21.6821 26.9031 21.7874 26.9031C22.1258 26.9031 22.4539 26.7454 22.6631 26.4657L23.6365 25.1643L26.0113 26.7975C27.0535 27.5142 27.6756 28.6972 27.6756 29.9621V33.3449C27.6756 33.6599 27.9309 33.9151 28.2458 33.9151C28.5608 33.9151 28.8161 33.6599 28.8161 33.3449V29.9621C28.8161 29.5129 28.7552 29.0719 28.6396 28.6489C28.7552 28.5814 28.8754 28.5223 28.9997 28.4724L30.6553 27.8081C30.9487 28.4394 31.5884 28.8785 32.3292 28.8785C33.0699 28.8785 33.7097 28.4395 34.003 27.8082L35.6588 28.4724C36.7058 28.8924 37.3822 29.8927 37.3822 31.0208V31.9859C37.3822 32.3009 37.6375 32.5562 37.9524 32.5562C38.2673 32.5562 38.5227 32.3009 38.5227 31.9859V31.0208C38.5226 29.4241 37.5651 28.0084 36.0833 27.4139ZM13.5539 15.8245C13.5539 15.3686 13.9229 14.9976 14.3778 14.9936V16.6553C13.9229 16.6513 13.5539 16.2804 13.5539 15.8245ZM10.5689 22.1787H10.363V20.8309H10.5689C10.9405 20.8309 11.2428 21.1332 11.2428 21.5048C11.2428 21.8763 10.9405 22.1787 10.5689 22.1787ZM2.34096 21.5048C2.34096 21.1332 2.64325 20.8309 3.01488 20.8309H3.22077V22.1788H3.01488C2.64333 22.1787 2.34096 21.8764 2.34096 21.5048ZM3.91331 17.9328C3.53507 18.4551 3.30638 19.0566 3.24091 19.6904H3.01488C2.91027 19.6904 2.80793 19.6998 2.7081 19.7169L2.51644 18.3504C2.34598 17.1355 3.15432 15.9925 4.35664 15.7482C4.39343 15.7407 4.42947 15.7296 4.46414 15.715L5.65049 15.2162C6.88535 14.697 8.26999 14.8564 9.35454 15.6423C10.4391 16.4283 11.0216 17.6944 10.9129 19.0277L10.855 19.7131C10.7618 19.6983 10.6663 19.6903 10.5689 19.6903H10.358C10.3088 19.2069 9.89943 18.8283 9.40319 18.8283H7.99514C6.99164 18.8283 5.99863 18.4943 5.19911 17.8879L5.03778 17.7656C4.86839 17.6371 4.65049 17.5813 4.44042 17.6126C4.23012 17.644 4.038 17.7607 3.91331 17.9328ZM4.83699 18.6017C4.83683 18.6019 4.83676 18.6021 4.83668 18.6022C4.83676 18.6021 4.83691 18.6019 4.83699 18.6017ZM4.36127 20.07C4.36127 19.6576 4.46064 19.259 4.65094 18.9002C5.62206 19.5904 6.80271 19.9688 7.99522 19.9688H9.22255V22.7313C9.22255 24.0716 8.13215 25.162 6.79191 25.162C5.45168 25.162 4.36127 24.0716 4.36127 22.7313V20.07ZM6.7098 27.4364C6.26154 27.4364 5.8969 27.0717 5.8969 26.6235V26.1887C6.183 26.2629 6.48293 26.3024 6.79191 26.3024C7.04235 26.3024 7.28671 26.2763 7.52278 26.2269V26.6235C7.52278 27.0717 7.15807 27.4364 6.7098 27.4364ZM24.5916 16.6553V14.9936C25.0466 14.9975 25.4155 15.3686 25.4155 15.8245C25.4155 16.2804 25.0466 16.6513 24.5916 16.6553ZM25.4032 11.5397L25.0693 13.9133C24.9163 13.8745 24.7563 13.8535 24.5915 13.8529V13.8068C24.5915 12.8874 24.3072 12.0032 23.7922 11.2642C24.0168 10.3995 24.0088 9.50919 23.7764 8.66299C24.8778 9.13307 25.5773 10.3022 25.4032 11.5397ZM15.5183 16.9682V13.6946C15.5183 12.4452 16.5348 11.4288 17.7841 11.4288H20.88C21.0103 11.4288 21.1368 11.3841 21.2382 11.3022L21.7881 10.858L22.299 11.2971C23.0312 11.9264 23.4511 12.8413 23.4511 13.8068V16.9681C23.4511 19.1553 21.6718 20.9346 19.4847 20.9346C17.2976 20.9346 15.5183 19.1553 15.5183 16.9682ZM19.4848 22.0751C20.1375 22.0751 20.7612 21.9507 21.3355 21.7265V22.4572L19.4848 23.3647L17.634 22.4572V21.7265C18.2082 21.9506 18.832 22.0751 19.4848 22.0751ZM17.199 25.7549L15.9707 24.1126L16.8676 23.3515L18.9145 24.3551V25.2328L17.199 25.7549ZM21.7704 25.7549L20.055 25.2329V24.3552L22.1018 23.3516L22.9987 24.1127L21.7704 25.7549ZM27.3867 23.355C26.8705 22.6856 26.7631 21.8232 27.0994 21.0477L27.9567 19.0708C28.0615 18.8293 28.1336 18.5747 28.1711 18.3139C28.4704 16.2342 30.2806 14.6658 32.3818 14.6658C34.483 14.6658 36.2932 16.2342 36.5924 18.3139C36.6299 18.5746 36.7021 18.8292 36.8068 19.0708L37.6641 21.0477C38.0004 21.8231 37.8931 22.6856 37.3768 23.355C36.9945 23.8506 36.4528 24.1557 35.8583 24.2289C35.9811 23.9099 36.0611 23.5698 36.0906 23.2153C36.1166 22.9015 35.8832 22.626 35.5694 22.6C35.2558 22.5745 34.9801 22.8074 34.954 23.1211C34.8442 24.4476 33.7143 25.4867 32.3818 25.4867C30.958 25.4867 29.7998 24.3285 29.7998 22.9047V20.1692C29.7998 19.5627 29.9783 18.9662 30.3071 18.4598C31.045 19.023 31.9545 19.3452 32.8836 19.3697L34.9638 19.4246V20.7381C34.9638 21.0531 35.2191 21.3083 35.534 21.3083C35.8489 21.3083 36.1043 21.0531 36.1043 20.7381V19.2702C36.1043 18.7339 35.6843 18.3027 35.1482 18.2887L32.9136 18.2298C32.1901 18.2107 31.4825 17.9486 30.9211 17.4921L30.7738 17.3722C30.6 17.2308 30.3817 17.166 30.1589 17.19C29.9362 17.2138 29.7365 17.3233 29.5966 17.4981C28.9921 18.2533 28.6591 19.202 28.6591 20.1695V22.9049C28.6591 23.3707 28.7459 23.8165 28.9029 24.2278C28.3094 24.1541 27.7685 23.85 27.3867 23.355ZM32.3291 27.738C31.9407 27.738 31.6246 27.422 31.6246 27.0335V26.5496C31.8692 26.6003 32.1224 26.6272 32.3817 26.6272C32.6036 26.6272 32.8213 26.6064 33.0335 26.5681V27.0336C33.0336 27.422 32.7176 27.738 32.3291 27.738Z" fill="#2D9CDB"/>
<path d="M1.22216 28.8892C0.938727 28.7516 0.597738 28.8704 0.46043 29.1538C0.154947 29.7849 0 30.4599 0 31.1601V32.9778C0 33.2928 0.255304 33.548 0.570215 33.548C0.885126 33.548 1.14043 33.2928 1.14043 32.9778V31.1601C1.14043 30.6335 1.25698 30.1258 1.48697 29.6508C1.6242 29.3674 1.50567 29.0263 1.22216 28.8892Z" fill="#2D9CDB"/>
</svg>
