<svg width="53" height="53" viewBox="0 0 53 53" fill="none" xmlns="http://www.w3.org/2000/svg">
<circle opacity="0.1" cx="26.5" cy="26.5" r="26.5" fill="#003399"/>
<g clip-path="url(#clip0)">
<path d="M35.0016 29.6226C34.8792 28.7722 34.2225 28.1092 33.3772 27.9116C30.0915 27.1415 29.2679 25.2494 29.1289 23.1507C28.5462 23.0423 27.5097 22.925 25.7502 22.925C23.9907 22.925 22.9541 23.0423 22.3714 23.1507C22.2324 25.2494 21.4088 27.1415 18.1231 27.9116C17.2778 28.1105 16.6212 28.7722 16.4988 29.6226L15.8651 34.0112C15.642 35.5565 16.7767 36.95 18.3552 36.95H33.1452C34.7223 36.95 35.8584 35.5565 35.6352 34.0112L35.0016 29.6226ZM25.7502 33.7523C23.9715 33.7523 22.5295 32.3243 22.5295 30.5648C22.5295 28.8053 23.9715 27.3773 25.7502 27.3773C27.5288 27.3773 28.9708 28.8053 28.9708 30.5648C28.9708 32.3243 27.5275 33.7523 25.7502 33.7523ZM38.4364 21.65C38.4058 19.7375 33.5379 16.5513 25.7502 16.55C17.9612 16.5513 13.0932 19.7375 13.0639 21.65C13.0346 23.5625 13.0907 26.0513 16.296 25.637C20.0458 25.1512 19.815 23.8418 19.815 21.9701C19.815 20.6645 22.8648 20.3495 25.7502 20.3495C28.6355 20.3495 31.684 20.6645 31.6853 21.9701C31.6853 23.8418 31.4545 25.1512 35.2043 25.637C38.4084 26.0513 38.4657 23.5625 38.4364 21.65Z" fill="#003399"/>
</g>
<defs>
<clipPath id="clip0">
<rect width="25.5" height="25.5" fill="white" transform="translate(13 14)"/>
</clipPath>
</defs>
</svg>
