<svg width="39" height="39" viewBox="0 0 39 39" fill="none" xmlns="http://www.w3.org/2000/svg">
<g clip-path="url(#clip0)">
<path d="M29.1967 28.2713C29.502 28.3528 29.8148 28.1718 29.8964 27.8673C30.3484 26.1808 30.3484 24.3979 29.8964 22.7113L28.9786 19.286C28.6325 17.9943 27.9497 16.8116 27.0041 15.8659C26.781 15.6428 26.4192 15.6428 26.1962 15.8659C25.973 16.089 25.973 16.4507 26.1961 16.6738C27.0002 17.4779 27.5808 18.4834 27.8751 19.5817L28.7929 23.007C29.1929 24.5001 29.1929 26.0785 28.7929 27.5716C28.7111 27.8763 28.892 28.1896 29.1967 28.2713Z" fill="#F90000"/>
<path d="M15.1223 27.9856C15.088 27.672 14.8065 27.4458 14.4922 27.4798C14.1747 27.5146 13.9517 27.8013 13.9865 28.1098C14.1838 29.9146 15.7035 31.2755 17.5213 31.2755H22.828C23.5176 31.2755 24.1779 31.0626 24.7375 30.6599C24.9941 30.4752 25.0515 30.1183 24.8675 29.8625C24.6832 29.6064 24.3262 29.5482 24.0701 29.7324C23.7061 29.9944 23.2765 30.1329 22.8279 30.1329H17.5212C16.2876 30.1329 15.2562 29.2098 15.1223 27.9856Z" fill="#F90000"/>
<path d="M36.4101 31.9316L30.774 10.8973C30.7788 10.8961 30.7836 10.8949 30.7885 10.8936L33.9154 10.0557C34.5295 9.89127 34.8952 9.25783 34.7307 8.64359L34.1913 6.6304L35.2735 6.34042C35.5159 6.27545 35.7185 6.11998 35.8439 5.90267C35.9693 5.68528 36.0027 5.43216 35.9376 5.18986L35.4366 3.3198C35.3024 2.81966 34.7868 2.52168 34.2861 2.65566L33.2039 2.94565L32.6643 0.932378C32.4997 0.31829 31.8661 -0.0473292 31.2523 0.117123L28.1253 0.955001C28.0296 0.98067 27.9389 1.01777 27.8548 1.0653C27.6343 0.801822 27.3667 0.57628 27.0602 0.399336C26.3729 0.00263879 25.5725 -0.102705 24.8057 0.102575L19.937 1.40707C18.7866 1.71534 17.9744 2.66229 17.7798 3.7644C17.6839 3.76547 17.5875 3.77865 17.4926 3.80409L17.0431 3.92451C16.7383 4.00617 16.5574 4.31946 16.6391 4.62422C16.7207 4.92898 17.0343 5.10973 17.3387 5.02823L17.7883 4.90773C17.7932 4.90651 17.7997 4.91039 17.801 4.91511C17.9136 5.33535 19.7516 12.1949 19.8672 12.6264C19.8685 12.6311 19.8646 12.6378 19.8598 12.6391L16.7329 13.477C16.7275 13.4785 16.7217 13.4752 16.7201 13.4696C15.8247 10.1278 15.265 8.03895 14.6539 5.75832C14.6526 5.7536 14.6565 5.7469 14.6613 5.7456L14.7608 5.71894C15.0656 5.63721 15.2463 5.32392 15.1647 5.01916C15.0829 4.7144 14.7694 4.53388 14.4649 4.61531L14.3655 4.64197C14.068 4.72164 13.8194 4.91245 13.6655 5.1792C13.5115 5.44595 13.4705 5.75665 13.5503 6.05409L14.0897 8.06736L13.0074 8.35742C12.7651 8.42239 12.5624 8.57778 12.4371 8.7951C12.3116 9.01241 12.2782 9.2656 12.3433 9.5079L12.8443 11.3777C12.9785 11.8789 13.493 12.1765 13.9948 12.0421L15.0771 11.7521L15.6165 13.7654C15.7812 14.3799 16.4148 14.7452 17.0286 14.5806L20.1555 13.7428C20.6754 13.6035 21.0053 13.1372 21.0105 12.6432C21.2653 12.7671 21.5385 12.8579 21.8243 12.9098C22.3494 13.0054 22.7569 13.3709 22.8881 13.8639L23.1433 14.823C23.2337 15.1601 23.2363 15.5173 23.151 15.8559L22.6041 18.0258C21.9441 20.6445 22.2231 23.3496 23.3327 25.7177C22.5732 25.3986 21.7503 25.2311 20.9016 25.2311H20.064C19.7484 25.2311 19.4927 25.4869 19.4927 25.8024C19.4927 26.1179 19.7484 26.3737 20.064 26.3737H20.9016C22.2718 26.3737 23.5599 26.9073 24.5287 27.8761C25.5871 28.9295 25.9865 29.406 26.9084 30.09C27.1618 30.2779 27.5196 30.2249 27.7075 29.9715C27.8955 29.718 27.8424 29.3603 27.589 29.1723C24.233 26.6829 22.6741 22.4228 23.7119 18.3051L24.2588 16.1352C24.3917 15.6082 24.3875 15.0521 24.2472 14.5282L23.9922 13.5702C23.7499 12.6591 22.9792 11.9586 22.0289 11.7857C21.2602 11.6459 20.633 11.0682 20.4309 10.3141C20.4292 10.3076 20.4661 10.446 19.9449 8.50131C19.8317 8.07841 20.0822 7.64446 20.5052 7.53112C22.4063 7.02169 20.9846 7.4027 22.8857 6.89327C22.9165 6.88519 22.9411 6.89403 22.9564 6.90286C22.972 6.91193 22.9924 6.92937 23.0009 6.96098C23.1634 7.56974 22.7948 8.1868 22.2027 8.3447L21.6306 8.49796C21.3259 8.57961 21.1451 8.8929 21.2267 9.19766C21.3083 9.50242 21.6215 9.68325 21.9264 9.60167C22.2375 9.51834 22.5867 9.4248 22.8872 9.34421C23.1683 9.2688 23.4577 9.26903 23.7318 9.34147C23.7437 9.3452 23.7557 9.34848 23.7679 9.35145C23.895 9.38824 24.0187 9.44072 24.1363 9.50859C24.517 9.72842 24.7894 10.0834 24.9032 10.5081C24.9846 10.8122 25.297 10.9938 25.6029 10.912C25.9067 10.8306 26.0887 10.5181 26.0068 10.2123C25.882 9.7467 25.6448 9.33058 25.318 8.99398C25.5505 8.87302 25.6761 8.60307 25.6055 8.33952C25.5239 8.03476 25.2106 7.85416 24.9058 7.93559L23.9816 8.18322C24.1891 7.72216 24.245 7.18972 24.1043 6.66437C24.0961 6.63383 24.0868 6.60382 24.0765 6.57426C24.8391 6.3699 27.3122 5.70729 28.1412 5.48518L28.537 6.96258L27.5127 7.2371C27.2079 7.31876 27.0271 7.63205 27.1088 7.93681C27.1902 8.24088 27.5026 8.42247 27.8085 8.34074L28.8328 8.0663L35.3068 32.2274C35.5661 33.1954 35.365 34.2065 34.7549 35.0015C34.1449 35.7965 33.2204 36.2524 32.2182 36.2524H20.4836C20.0522 36.2524 19.6267 36.3664 19.2531 36.5822C17.808 37.4165 16.1621 37.8576 14.4934 37.8576H10.5128C8.64316 37.8576 6.89039 37.1243 5.57751 35.7929C4.26494 34.4617 3.55648 32.6982 3.58268 30.8272C3.63463 27.1218 6.69105 24.0578 10.3959 23.9969C12.1793 23.967 13.8802 24.6128 15.1917 25.8135C15.5863 26.1749 16.0913 26.3738 16.6135 26.3738H17.3981C17.7136 26.3738 17.9693 26.1181 17.9693 25.8026C17.9693 25.4871 17.7136 25.2313 17.3981 25.2313H16.6135C16.3776 25.2313 16.1467 25.1388 15.9632 24.9709C14.4354 23.572 12.4541 22.8206 10.3772 22.8545C8.27746 22.889 6.29794 23.7332 4.80339 25.2315C3.30892 26.7298 2.4696 28.7114 2.44027 30.8112C2.40973 32.9905 3.23496 35.0447 4.76401 36.5953C6.29329 38.1462 8.33497 39.0003 10.5129 39.0003H14.4934C16.3625 39.0003 18.2059 38.5063 19.8245 37.5718C20.0247 37.4563 20.2526 37.3952 20.4837 37.3952H32.2181C33.5782 37.3952 34.8333 36.7763 35.6613 35.6972C36.4893 34.6178 36.7622 33.2454 36.4101 31.9316ZM13.8954 10.8857L13.4995 9.40827L14.3855 9.17085L14.7814 10.6483L13.8954 10.8857ZM34.3856 3.81186L34.7814 5.28934L33.8954 5.52676L33.4995 4.04928L34.3856 3.81186ZM28.4211 2.05856L31.5481 1.22068C31.5534 1.21916 31.5593 1.22236 31.5609 1.22807L33.6271 8.93921C33.6286 8.94477 33.6253 8.95056 33.6197 8.95201L30.4927 9.78989C30.4872 9.79149 30.4815 9.78806 30.4799 9.7825C30.3043 9.12713 28.6569 2.9787 28.4137 2.07121C28.4124 2.06656 28.4163 2.05986 28.4211 2.05856ZM25.9882 4.87901C26.0137 4.65964 25.9992 4.43174 25.9385 4.20528L25.6933 3.29024C25.6117 2.98548 25.2985 2.80488 24.9936 2.88623C24.6893 2.96773 24.5078 3.28064 24.5896 3.58594L24.8348 4.50097C24.93 4.85692 24.7165 5.21965 24.3665 5.31356L23.8882 5.44168L23.5466 4.16681C23.465 3.86205 23.1516 3.68138 22.8469 3.76288C22.5421 3.84454 22.3613 4.15783 22.4429 4.46258L22.7845 5.73738C22.4856 5.81751 21.8945 5.97587 21.6662 6.03703L21.3246 4.76224C21.243 4.45756 20.9297 4.27673 20.6249 4.35831C20.3201 4.43996 20.1393 4.75325 20.2209 5.05801L20.5625 6.3328L20.3431 6.39161C19.8464 6.52475 19.3364 6.23043 19.2032 5.73349C19.2009 5.72496 18.9432 4.76315 18.9397 4.74998C18.6788 3.77613 19.2588 2.7716 20.2326 2.51071L25.1013 1.20621C25.5729 1.07984 26.0658 1.14467 26.4887 1.38879C26.9116 1.633 27.2142 2.02726 27.3406 2.49898L27.845 4.38154L25.9882 4.87901Z" fill="#F90000"/>
</g>
<defs>
<clipPath id="clip0">
<rect width="39" height="39" fill="white"/>
</clipPath>
</defs>
</svg>
